<?xml version="1.0" encoding="UTF-8" standalone="no"?>
<!-- Created with Inkscape (http://www.inkscape.org/) -->

<svg
   width="125mm"
   height="50mm"
   viewBox="0 0 125 50"
   version="1.1"
   id="svg1"
   inkscape:version="1.4 (86a8ad7, 2024-10-11)"
   sodipodi:docname="GU.grey.svg"
   xmlns:inkscape="http://www.inkscape.org/namespaces/inkscape"
   xmlns:sodipodi="http://sodipodi.sourceforge.net/DTD/sodipodi-0.dtd"
   xmlns="http://www.w3.org/2000/svg"
   xmlns:svg="http://www.w3.org/2000/svg">
  <sodipodi:namedview
     id="namedview1"
     pagecolor="#ffffff"
     bordercolor="#666666"
     borderopacity="1.0"
     inkscape:showpageshadow="2"
     inkscape:pageopacity="0.0"
     inkscape:pagecheckerboard="0"
     inkscape:deskcolor="#d1d1d1"
     inkscape:document-units="mm"
     inkscape:zoom="1.4520903"
     inkscape:cx="286.82789"
     inkscape:cy="151.85006"
     inkscape:window-width="1920"
     inkscape:window-height="1017"
     inkscape:window-x="-8"
     inkscape:window-y="-8"
     inkscape:window-maximized="1"
     inkscape:current-layer="layer1" />
  <defs
     id="defs1">
    <rect
       x="20.659872"
       y="327.80328"
       width="750.64203"
       height="479.30902"
       id="rect1" />
  </defs>
  <g
     inkscape:label="Layer 1"
     inkscape:groupmode="layer"
     id="layer1">
    <text
       xml:space="preserve"
       transform="matrix(0.15990007,0,0,0.15990007,0.08199518,-47.367377)"
       id="text1"
       style="font-style:normal;font-variant:normal;font-weight:bold;font-stretch:normal;font-size:192px;line-height:1.25;font-family:sans-serif;-inkscape-font-specification:'sans-serif Bold';white-space:pre;shape-inside:url(#rect1);display:inline"><tspan
         x="20.660156"
         y="502.49877"
         id="tspan1">Give Up</tspan></text>
    <path
       id="path1"
       style="fill:#b3b3b3;stroke-width:0.220234"
       d="m 30.370269,9.693699 c -0.768291,0 -1.942676,0.5882 -2.224153,1.114144 -0.322199,0.602033 -0.146304,2.130559 0.296106,2.572969 0.177586,0.177586 0.655916,0.3988 1.062984,0.49196 2.067456,0.473179 3.512628,-0.859218 3.012736,-2.777608 -0.189099,-0.725691 -1.224774,-1.401465 -2.147673,-1.401465 z m -14.497306,1.222664 c -1.024562,0.01992 -1.977334,0.117585 -2.695443,0.29714 -2.903834,0.72607 -5.5173698,2.719101 -6.6765948,5.092195 -1.62778,3.332285 -1.601892,8.545219 0.05943,11.977047 1.218757,2.517616 3.9190188,4.353971 6.9473798,4.724259 2.482325,0.303523 5.631355,0.01931 8.423775,-0.759643 L 23.088029,31.9249 V 26.315423 20.70543 H 18.7932 14.498889 v 1.87172 1.872237 h 2.091862 2.092379 v 2.405021 2.405022 l -1.430404,0.152962 c -4.118261,0.441028 -6.294313,-0.99188 -7.160803,-4.715475 -0.4038448,-1.735458 -0.1861408,-4.914015 0.434598,-6.351033 0.654313,-1.514745 2.218945,-2.967675 3.740857,-3.473173 1.505763,-0.500134 4.440539,-0.367631 6.112289,0.275952 l 1.146183,0.441317 0.680062,-1.632976 c 0.373934,-0.898233 0.627026,-1.718631 0.562756,-1.822627 -0.06427,-0.103996 -0.935222,-0.416767 -1.935799,-0.695048 -1.346122,-0.374386 -3.2523,-0.556172 -4.959904,-0.522966 z m 65.327281,0.318844 0.0734,7.983492 c 0.0663,7.22549 0.11284,8.077688 0.48886,8.974646 1.19121,2.841515 3.37138,4.412707 6.73343,4.852934 3.51161,0.459812 6.74424,-0.517338 8.61447,-2.604493 1.80337,-2.012533 1.82636,-2.147634 1.90996,-11.223087 l 0.0734,-7.983492 h -2.20194 -2.20193 l -0.0677,7.653279 -0.0682,7.65328 -0.55087,0.979785 c -0.79827,1.420551 -1.7181,1.883089 -3.74396,1.883089 -2.1097,0 -3.18398,-0.512249 -3.96409,-1.890324 l -0.55036,-0.97255 -0.0703,-7.65328 -0.0703,-7.653279 h -2.20193 z m 32.361326,4.837431 c -1.5599,-0.0225 -3.12301,0.532734 -4.12533,1.674316 -0.36501,0.415723 -0.75593,0.756026 -0.86868,0.756026 -0.11275,0 -0.32393,-0.495581 -0.46922,-1.101225 l -0.26407,-1.101224 h -1.73995 -1.73994 v 12.002885 12.002885 h 2.10426 2.10478 l -0.0672,-4.625041 c -0.0371,-2.543838 0.0184,-4.625172 0.12351,-4.625041 0.10514,1.33e-4 0.54401,0.30979 0.97514,0.68833 1.10375,0.969106 2.09624,1.326019 3.71398,1.335319 1.66417,0.0096 3.44646,-0.748737 4.39456,-1.869653 2.68125,-3.169892 2.66269,-10.153307 -0.0357,-13.344405 -0.9896,-1.170317 -2.54631,-1.77067 -4.10621,-1.793172 z m -52.095524,0.03152 c -1.843388,0.01552 -3.218372,0.422147 -4.418335,1.291394 -2.432749,1.762274 -3.633362,5.64509 -2.915584,9.429916 0.649006,3.422199 3.135405,5.735911 6.662642,6.199621 2.133555,0.28049 4.987495,-0.03979 6.690545,-0.751375 l 0.75034,-0.313676 v -1.552877 c 0,-0.854084 -0.074,-1.552938 -0.16485,-1.552877 -0.0909,6.1e-5 -0.70251,0.204167 -1.35909,0.453719 -1.72261,0.654723 -4.573918,0.817405 -5.841497,0.333313 -1.156228,-0.441568 -1.994757,-1.347678 -2.315105,-2.501139 -0.474681,-1.709166 -0.86206,-1.589567 5.166092,-1.589567 h 5.39554 v -1.738912 c 0,-4.803147 -2.37561,-7.477466 -6.831108,-7.690487 -0.2833,-0.01354 -0.55625,-0.01927 -0.81959,-0.01705 z m -33.312695,0.196373 v 8.258927 8.258927 H 30.3558 32.557733 V 24.559458 16.300531 H 30.3558 Z m 8.157124,0.02945 c -0.872474,0.003 -1.119885,0.0719 -1.058333,0.238229 0.05766,0.155811 1.471989,3.875755 3.142961,8.266678 l 3.038057,7.983492 h 2.255676 2.255677 l 0.329695,-0.825789 c 0.909586,-2.278343 5.884396,-15.433962 5.884396,-15.560807 0,-0.08061 -1.009754,-0.118236 -2.244308,-0.08372 l -2.244824,0.06253 -1.824178,5.616195 c -1.003272,3.088787 -1.882456,5.997594 -1.953886,6.464205 -0.07143,0.466611 -0.16777,0.810981 -0.21394,0.764811 -0.04617,-0.04617 -0.241356,-0.847721 -0.434082,-1.78077 -0.192728,-0.933049 -1.078496,-3.804309 -1.967839,-6.380489 l -1.616956,-4.683952 -2.255676,-0.06305 c -0.441459,-0.01234 -0.801615,-0.01858 -1.09244,-0.01757 z m 25.378301,2.780709 c 1.472458,-0.03312 2.870318,0.77915 3.139338,2.121318 0.0755,0.376645 0.18576,0.858244 0.24546,1.070219 0.0999,0.35481 -0.15477,0.384989 -3.209618,0.384989 h -3.318145 v -0.557589 c 0,-0.861898 0.564008,-2.011464 1.187524,-2.420007 0.601142,-0.393884 1.286132,-0.583875 1.955441,-0.59893 z m 50.129234,0.331251 c 0.1357,-0.005 0.27184,-7.74e-4 0.40669,0.01292 2.12762,0.216042 2.95347,1.604863 2.94297,4.948535 -0.01,3.133179 -0.50306,4.434597 -1.90376,5.019849 -1.58678,0.662997 -3.25026,0.132256 -3.97443,-1.26814 -0.83722,-1.619045 -0.77886,-6.241023 0.0941,-7.449674 0.54159,-0.749895 1.48451,-1.228836 2.43448,-1.263489 z" />
  </g>
</svg>
