<?xml version="1.0" encoding="UTF-8" standalone="no"?>
<!-- Created with Inkscape (http://www.inkscape.org/) -->

<svg
   width="200mm"
   height="299mm"
   viewBox="0 0 200 299"
   version="1.1"
   id="svg1"
   xml:space="preserve"
   inkscape:version="1.4 (86a8ad7, 2024-10-11)"
   sodipodi:docname="pausemenu.svg"
   xmlns:inkscape="http://www.inkscape.org/namespaces/inkscape"
   xmlns:sodipodi="http://sodipodi.sourceforge.net/DTD/sodipodi-0.dtd"
   xmlns="http://www.w3.org/2000/svg"
   xmlns:svg="http://www.w3.org/2000/svg"><sodipodi:namedview
     id="namedview1"
     pagecolor="#ffffff"
     bordercolor="#666666"
     borderopacity="1.0"
     inkscape:showpageshadow="2"
     inkscape:pageopacity="0.0"
     inkscape:pagecheckerboard="0"
     inkscape:deskcolor="#d1d1d1"
     inkscape:document-units="mm"
     inkscape:zoom="0.72604517"
     inkscape:cx="312.65272"
     inkscape:cy="444.18724"
     inkscape:window-width="1920"
     inkscape:window-height="1017"
     inkscape:window-x="-8"
     inkscape:window-y="-8"
     inkscape:window-maximized="1"
     inkscape:current-layer="layer1" /><defs
     id="defs1"><rect
       x="211.3397"
       y="423.65332"
       width="373.00971"
       height="245.42675"
       id="rect6" /><rect
       x="211.33971"
       y="423.65332"
       width="373.0097"
       height="245.42674"
       id="rect6-5" /></defs><g
     inkscape:label="Layer 1"
     inkscape:groupmode="layer"
     id="layer1"><rect
       style="fill:#fb0d24;fill-opacity:1;stroke-width:0.248741"
       id="rect1"
       width="202.25153"
       height="301.37302"
       x="-1.0932512"
       y="-0.72883439" /><path
       id="path6"
       style="fill:#f9f9f9;stroke:none"
       d="m 102.38152,6.2531798 -4.762501,0.264583 1.85209,3.7041672 -2.64584,-1.3229172 v 3.9687502 l 2.64584,-1.322917 c -0.0296,2.499654 -2.76689,2.816172 -2.87114,5.291667 -0.15309,3.634759 5.002451,4.578984 6.398571,1.3224 1.21296,-2.829349 -2.17372,-4.00993 -2.20452,-6.614067 l 2.38125,1.322917 V 8.8990128 l -2.64583,1.058333 z m -3.175001,8.4666662 c 0.26615,1.168695 -0.17094,1.516672 -1.32291,1.322917 z m 1.587501,0 1.32292,1.322917 -1.32292,0.264583 z m 4.80487,3.034957 c -0.16249,-0.03588 -0.3447,-0.03714 -0.54415,0.0057 -1.51765,0.325659 -0.98422,2.555851 0.48731,2.361613 1.38174,-0.182366 1.19432,-2.116146 0.0568,-2.367298 z m -5.633241,0.173116 c 0.675151,0.05021 1.317761,0.265891 1.886711,0.760677 -1.44686,0.696275 -2.859191,0.728186 -3.968751,-0.529166 0.69919,-0.166462 1.40689,-0.281722 2.08204,-0.231511 z m -6.04046,0.142111 c -1.54117,0.157807 -1.26616,2.415584 0.2465,2.370914 1.69303,-0.05 1.33309,-2.532662 -0.2465,-2.370914 z m 15.296731,1.002522 c -0.14479,-0.01321 -0.29701,0.0031 -0.45216,0.05581 -1.45852,0.495738 -0.42961,2.608207 0.95911,2.041219 1.16221,-0.474494 0.50661,-2.004558 -0.50695,-2.097029 z m -18.741481,0.02222 c -0.15255,-0.022 -0.32293,-0.0098 -0.50953,0.04651 -1.34487,0.405789 -0.91096,2.59897 0.493,2.258777 1.2762,-0.309227 1.08444,-2.151311 0.0165,-2.305286 z m 21.990381,1.369426 c -1.30435,0.412669 -0.60957,2.373013 0.69918,1.928047 1.26958,-0.431628 0.53902,-2.319787 -0.69918,-1.928047 z m -25.689381,0.305924 c -1.3891,0 -1.12501,2.18123 0.23048,2.0283 1.31043,-0.147859 1.00932,-2.0283 -0.23048,-2.0283 z m 16.922991,0.03514 -2.11666,7.672917 h 1.32292 l 1.58749,-6.085417 10.05417,3.439583 c -1.56804,2.816463 -2.90842,4.873346 -2.91042,8.202084 h -0.26458 c -2.46398,-4.739149 -8.57307,2.46125 -3.96875,5.291666 0.6876,-3.793212 4.89632,-2.124482 3.66489,1.058334 -2.16872,5.605343 -9.08045,1.996018 -9.48572,-2.645834 l 2.91041,1.5875 -0.26458,-6.879166 -2.91041,1.852083 1.5875,-4.7625 h -6.085421 l 1.85209,5.027083 -2.91042,-2.116666 v 6.614583 l 3.175,-1.322917 c -0.71112,4.744075 -8.18507,8.380239 -10.45466,2.645834 -0.52483,-1.32605 0.34085,-4.15204 2.24121,-3.363619 1.0404,0.431627 1.26766,1.624545 1.59887,2.569869 2.22317,-1.155744 2.65168,-5.221097 0.25321,-6.493661 -1.66282,-0.882246 -3.14739,-0.05145 -4.48655,0.937411 0,-2.930558 -0.50897,-5.44843 -2.90576,-7.403166 -0.003,0.0014 -0.006,0.0022 -0.008,0.0036 -1.38378,2.643374 -1.14155,5.174787 -0.26097,7.928715 -1.60868,-0.586333 -3.32145,-0.840161 -4.73459,0.36897 -2.31014,1.976656 -1.74916,6.447055 1.29501,7.303947 -0.16165,-0.874074 -0.39222,-1.79905 0.047,-2.634464 1.43013,-2.719827 4.72156,-0.751214 4.38992,1.840714 -0.38791,3.031598 -4.24001,4.441525 -6.81871,3.451469 -2.33661,-0.897103 -3.85644,-3.241615 -4.49792,-5.568136 l 3.96875,1.852084 -1.85208,-6.879167 -3.175,2.38125 2.11667,-4.497917 -4.497919,1.058334 c 0.15514,1.776958 0.2877,4.734239 0.81287,6.348966 0.75158,2.310841 2.4028,4.015646 2.90783,6.615617 0.65634,3.378896 -1.35611,6.176965 2.89388,8.190715 1.8951,0.897942 6.68093,-1.463493 8.73125,-1.933216 6.13735,-1.406067 12.52426,-1.372752 18.78541,-1.226798 3.99702,0.09318 8.36408,0.609168 12.17083,1.848466 1.30182,0.423811 3.93016,1.769417 5.17902,0.894519 1.26339,-0.885072 3.01441,-2.980794 2.96261,-4.598686 -0.046,-1.436686 -0.92833,-2.78045 -0.62322,-4.233333 0.50786,-2.418247 2.01014,-4.14923 2.82877,-6.35 0.5747,-1.544996 0.77662,-4.129722 1.02991,-5.820834 l -3.96875,-1.058333 1.05833,4.497917 -2.64583,-2.116667 -1.5875,5.820833 3.70416,-1.322916 c -1.07038,2.007371 -1.84014,4.131466 -3.96875,5.279264 -2.75415,1.485084 -7.34233,0.343503 -7.30963,-3.427181 0.0159,-1.827214 2.4057,-3.816919 3.55431,-1.573031 0.43672,0.853178 0.0109,1.781157 -0.21343,2.631364 6.37786,-1.237393 3.0909,-11.728354 -2.64583,-6.614583 0.861,-3.155589 1.5606,-5.886332 0,-8.995833 2.13218,1.008692 6.3097,5.544881 8.46667,4.233333 v -0.264583 c -5.71076,-4.941139 -12.41259,-7.406331 -19.57917,-9.260417 z m -8.314731,0.130741 c -1.34004,-0.176886 -3.65642,0.999806 -4.64933,1.373043 -4.89744,1.841037 -11.03142,4.557893 -14.2875,8.814966 1.78547,1.149865 3.33414,-1.028361 4.7625,-2.075842 1.29691,-0.951081 2.62318,-1.715537 3.96462,-2.41329 0.002,-0.003 0.002,-0.0058 0.004,-0.0088 0.002,0.0016 0.003,0.0036 0.005,0.0052 3.14275,-1.633691 6.39999,-2.781757 9.78493,-4.238501 l 1.85208,6.085417 1.5875,-0.264584 c -0.46195,-1.639984 -0.98226,-6.193744 -2.51612,-7.112744 -0.1449,-0.08681 -0.31603,-0.139578 -0.50747,-0.164848 z m 4.37338,0.02326 c -1.38981,0.188715 -1.18951,2.463124 0.243911,2.316654 1.62225,-0.165752 1.33904,-2.531596 -0.243911,-2.316654 z m 16.146291,1.367358 c -1.14938,0.306118 -0.76866,2.178355 0.46095,1.743046 1.06899,-0.378433 0.66828,-2.043803 -0.46095,-1.743046 z M 83.414719,22.56795 c -0.9966,0.385797 -0.34052,1.978853 0.67541,1.568897 1.12501,-0.453978 0.38877,-1.980855 -0.67541,-1.568897 z m 16.35508,1.610755 c -1.109,0.297139 -0.64814,2.016446 0.460951,1.719274 1.10904,-0.297172 0.64804,-2.016414 -0.460951,-1.719274 z m 19.044301,0 c -1.04818,0.290227 -0.60297,1.884671 0.44804,1.478462 0.91457,-0.353467 0.52063,-1.746663 -0.44804,-1.478462 z m -38.264321,0.604097 c -0.30317,0.0667 -0.58868,0.426441 -0.65784,1.314132 2.01913,0.225318 1.61015,-1.063865 0.95963,-1.291911 -0.0976,-0.03421 -0.20073,-0.04446 -0.30179,-0.02222 z m 41.386101,1.360641 c -0.87584,-0.127899 -1.09098,1.160232 -0.21498,1.297078 0.85883,0.134165 1.10203,-1.167532 0.21498,-1.297078 z m -44.080511,0.681095 c -0.90838,0.275371 -0.24111,1.574871 0.59893,1.213879 0.81166,-0.348816 0.14189,-1.438445 -0.59893,-1.213879 z m 21.93045,0.264583 c -0.85269,0.257187 -0.41788,1.441223 0.399971,1.190108 0.79083,-0.242815 0.38805,-1.42782 -0.399971,-1.190108 z m 24.096711,1.058334 c -0.76975,0.2495 -0.37566,1.529655 0.38964,1.267106 0.75737,-0.259836 0.41142,-1.526748 -0.38964,-1.267106 z m -47.947971,0.605131 c -0.87812,0.116175 -0.63365,1.469031 0.22583,1.333768 0.85784,-0.135004 0.60627,-1.443839 -0.22583,-1.333768 z m 23.53655,6.604764 h 1.058331 l -1.058331,1.058334 z m 26.987491,1.852084 h 0.52916 c 0.18425,0.991961 -0.0425,1.45243 -0.79375,2.116666 z m -53.974991,0.79375 h 0.52916 l 0.52917,2.116666 z m 27.25208,6.085416 c 1.891651,1.610964 1.387461,3.10288 0.264581,5.027084 h -0.264581 c -1.20214,-2.040702 -1.32498,-3.015999 0,-5.027084 z m 5.697831,0.928109 c 0.27204,0.01213 0.53361,0.320788 0.38758,1.188558 -1.32384,-0.405953 -0.84097,-1.208771 -0.38758,-1.188558 z m -11.161581,0.04496 c 0.44083,0.110576 0.73106,0.77595 0.27027,1.121895 -0.64444,0.483853 -1.37722,-0.535756 -0.73897,-1.014925 0.15819,-0.118755 0.32176,-0.143829 0.4687,-0.10697 z m 16.345761,0.02997 c 2.59041,-0.261212 5.42354,2.771401 2.56161,4.432288 -2.78348,1.615373 -7.04265,-2.26522 -3.63958,-4.105176 0.34284,-0.185363 0.70791,-0.289796 1.07797,-0.327112 z m -21.538721,0.12144 c 2.64826,0.341902 3.33243,3.987113 0.0734,4.779553 -3.895,0.947068 -5.38358,-3.773381 -1.32292,-4.705656 0.45271,-0.103936 0.87121,-0.122737 1.24954,-0.0739 z m 29.485531,1.424202 c 0.39479,0.06666 0.68413,0.613512 0.3023,0.961698 -0.52864,0.482061 -1.25408,-0.399313 -0.71158,-0.842842 0.13397,-0.109534 0.27769,-0.141076 0.40928,-0.118856 z m -37.058201,0.936377 c 0.39337,0.190447 0.48029,0.898621 -0.0966,1.079521 -0.70961,0.222483 -1.03128,-0.745449 -0.38551,-1.05885 0.18586,-0.0902 0.35102,-0.08415 0.48214,-0.02067 z m 42.041871,0.219108 h 0.52917 c 0.28225,1.929808 0.36417,2.937983 -1.32292,4.233333 -0.4839,-1.834287 -0.26938,-2.649402 0.79375,-4.233333 z m -28.962561,0.663525 c 0.27203,0.01213 0.5336,0.320787 0.38757,1.188558 -1.32383,-0.405953 -0.84097,-1.20877 -0.38757,-1.188558 z m 10.494441,0.04444 c 0.41049,0.05879 0.74103,0.539481 0.30644,0.861446 -0.51691,0.382955 -1.29773,-0.328823 -0.7183,-0.758093 0.12922,-0.09573 0.27502,-0.122949 0.41186,-0.103353 z m -29.156871,0.350366 c 1.31642,0.958404 1.5815,1.861112 1.5875,3.439584 -1.79065,-0.70204 -1.80437,-1.712961 -1.5875,-3.439584 z m 41.868751,1.046965 c 0.39131,0.134533 0.59728,0.750624 0.11576,1.024227 -0.62429,0.354742 -1.13271,-0.614982 -0.54984,-0.9679 0.15305,-0.09267 0.30365,-0.101169 0.43408,-0.05633 z m -35.821061,0.784965 c 0.3055,0.08504 0.48647,0.542805 0.14263,0.772563 -0.45857,0.306426 -0.93284,-0.404739 -0.47439,-0.711068 0.11464,-0.07661 0.22993,-0.08983 0.33176,-0.06149 z m 17.08527,1.7663 c -3.96469,0.112134 -7.92345,0.508263 -11.75588,1.143083 -2.56097,0.424215 -6.4171,0.591727 -8.20208,2.667021 2.79468,1.966478 6.98555,2.400661 10.31875,2.668571 7.07164,0.56841 14.111011,0.114901 21.166661,-0.278019 2.55863,-0.14248 5.19432,-0.526788 7.67291,-1.197343 0.65717,-0.177783 2.32648,-0.563952 2.32648,-1.464511 0,-0.876723 -1.43096,-1.194516 -2.06189,-1.403531 -2.48761,-0.824126 -5.08283,-1.238168 -7.67292,-1.574581 -3.8567,-0.500914 -7.82733,-0.672824 -11.792031,-0.56069 z" /><text
       xml:space="preserve"
       transform="matrix(0.26458333,0,0,0.26458333,29.128043,83.517962)"
       id="text6"
       style="font-style:normal;font-variant:normal;font-weight:bold;font-stretch:normal;font-size:74.6667px;line-height:1.25;font-family:sans-serif;-inkscape-font-specification:'sans-serif Bold';white-space:pre;shape-inside:url(#rect6);display:inline;fill:#ffffff"><tspan
         x="211.33984"
         y="491.58972"
         id="tspan2">OR</tspan></text><text
       xml:space="preserve"
       transform="matrix(0.26458333,0,0,0.26458333,29.128043,2.3740994)"
       id="text6-7"
       style="font-style:normal;font-variant:normal;font-weight:bold;font-stretch:normal;font-size:74.6667px;line-height:1.25;font-family:sans-serif;-inkscape-font-specification:'sans-serif Bold';white-space:pre;shape-inside:url(#rect6-5);display:inline;fill:#ffffff"><tspan
         x="211.33984"
         y="491.58972"
         id="tspan3">OR</tspan></text><path
       style="fill:#ffffff;fill-opacity:1;stroke-width:0.243479"
       d="m 346.71441,500.94417 c -2.21686,-0.27754 -5.26517,-1.04884 -6.92807,-1.75299 -5.21904,-2.20997 -9.5533,-6.69967 -11.6295,-12.04656 -1.69441,-4.36364 -2.50971,-10.63504 -2.12921,-16.37813 0.90323,-13.63295 7.56972,-21.76134 19.48104,-23.75305 3.72736,-0.62326 10.43574,-0.39581 13.74448,0.466 9.08817,2.36716 14.65273,8.89216 16.61276,19.48009 0.5804,3.13532 0.56812,10.88046 -0.0221,13.91134 -0.87496,4.49327 -2.25698,8.07716 -4.24181,10.99995 -1.20922,1.78066 -4.38949,4.79145 -6.21217,5.88112 -2.02268,1.20924 -4.56493,2.17265 -7.19748,2.72753 -2.73604,0.5767 -8.66579,0.81678 -11.47797,0.4647 z m 7.91264,-9.36289 c 4.93135,-1.03995 7.68528,-4.02009 9.32421,-10.09012 0.5851,-2.16701 0.62766,-2.68788 0.62766,-7.68118 0,-4.9933 -0.0426,-5.51417 -0.62766,-7.68118 -1.99808,-7.40023 -5.60093,-10.32046 -12.73292,-10.32046 -5.91014,0 -9.36541,2.01688 -11.55527,6.74495 -1.19248,2.57466 -1.63907,4.41795 -1.99745,8.24436 -0.3195,3.41127 -0.0458,7.70558 0.68087,10.68192 1.05968,4.34044 3.54046,7.79592 6.61398,9.2126 2.68426,1.23725 6.39658,1.57871 9.66658,0.88911 z"
       id="path7"
       transform="scale(0.26458333)" /><path
       style="fill:#ffffff;fill-opacity:1;stroke-width:0.243479"
       d="m 387.61844,473.93172 v -26.5392 h 9.14006 c 5.02703,0 10.19386,0.1175 11.48186,0.26112 9.86895,1.10046 14.99259,5.41659 15.87579,13.3737 0.22858,2.05935 0.0387,4.92471 -0.43041,6.49364 -0.60568,2.0259 -2.03222,4.2856 -3.79396,6.0098 -1.04476,1.0225 -4.20463,3.19081 -5.03319,3.45379 -0.30453,0.0966 -0.44039,0.29263 -0.35577,0.51317 0.0753,0.19624 3.53455,5.38824 7.6872,11.53777 4.15265,6.14952 7.55028,11.23821 7.55028,11.30818 0,0.07 -2.71175,0.12546 -6.02611,0.12329 l -6.0261,-0.004 -6.33009,-10.22218 -6.33009,-10.22218 h -3.10472 -3.10472 v 10.22612 10.22611 h -5.60001 -5.60002 z m 18.74788,-3.17984 c 4.44057,-0.71386 6.64697,-3.09322 6.64697,-7.16801 0,-5.13998 -3.1432,-7.15116 -11.2122,-7.17414 l -2.98262,-0.008 v 7.30436 7.30437 l 2.98262,-0.002 c 1.64044,-0.001 3.69479,-0.11632 4.56523,-0.25625 z"
       id="path8"
       transform="scale(0.26458333)" /><path
       style="fill:#ffffff;fill-opacity:1;stroke-width:0.243479"
       d="m 348.17486,807.72173 c -12.11714,-0.83553 -19.77991,-8.10749 -21.78732,-20.67612 -0.54812,-3.43184 -0.54915,-9.7409 -0.002,-13.14786 0.47232,-2.9418 1.55745,-6.53193 2.61254,-8.6435 2.94086,-5.88566 8.30311,-9.86867 15.28126,-11.35074 3.57012,-0.75825 10.23129,-0.77928 13.63482,-0.043 4.73332,1.02388 8.43784,2.96263 11.39072,5.96131 1.74223,1.76925 2.64262,3.02711 3.83932,5.36363 4.73788,9.25056 4.21093,24.52314 -1.12833,32.70207 -4.80913,7.36684 -12.65986,10.60523 -23.84086,9.83426 z m 7.11802,-9.6118 c 3.38253,-0.82186 5.72945,-2.77146 7.24692,-6.02003 1.71779,-3.67745 2.32085,-7.35171 2.12648,-12.95601 -0.31064,-8.95631 -3.02704,-14.13651 -8.38271,-15.98589 -1.43131,-0.49425 -2.11994,-0.57202 -5.06523,-0.57202 -2.9382,0 -3.63559,0.0784 -5.05251,0.56779 -5.09417,1.75957 -7.77784,6.32107 -8.5087,14.46246 -0.78175,8.70818 1.63254,16.31551 6.07045,19.12775 2.91,1.84403 7.42703,2.38143 11.5653,1.37595 z"
       id="path9"
       transform="scale(0.26458333)" /><path
       style="fill:#ffffff;fill-opacity:1;stroke-width:0.243479"
       d="m 387.61844,780.55806 v -26.6963 l 9.92177,0.1462 c 12.42171,0.18303 15.08658,0.54846 19.25526,2.64046 4.9115,2.46478 7.39675,6.87636 7.38557,13.11019 -0.008,4.45515 -1.13113,7.20758 -4.17284,10.22611 -1.01206,1.00435 -2.52609,2.20957 -3.36452,2.67827 -0.83843,0.4687 -1.70348,0.97306 -1.92234,1.1208 -0.34557,0.23328 0.33315,1.35434 5.15934,8.52176 3.05649,4.53923 6.58898,9.76157 7.84997,11.6052 l 2.29272,3.35206 -6.16245,-0.0651 -6.16245,-0.0651 -6.34196,-10.22611 -6.34196,-10.22612 -3.09804,-0.0681 -3.09804,-0.0681 v 10.35512 10.35513 h -5.60001 -5.60002 z m 19.47832,-3.26265 c 3.88289,-0.84958 5.91216,-3.22045 5.92989,-6.9281 0.0248,-5.1864 -2.94373,-7.17095 -10.7386,-7.17903 l -3.46958,-0.004 v 7.34013 7.34013 l 3.46958,-0.13826 c 1.90826,-0.076 4.07218,-0.27011 4.80871,-0.43127 z"
       id="path10"
       transform="scale(0.26458333)" /></g></svg>
