<?xml version="1.0" encoding="UTF-8" standalone="no"?>
<!-- Created with Inkscape (http://www.inkscape.org/) -->

<svg
   width="200mm"
   height="200mm"
   viewBox="0 0 200 200"
   version="1.1"
   id="svg1"
   xml:space="preserve"
   inkscape:version="1.4 (86a8ad7, 2024-10-11)"
   sodipodi:docname="Bf109E 5.svg"
   xmlns:inkscape="http://www.inkscape.org/namespaces/inkscape"
   xmlns:sodipodi="http://sodipodi.sourceforge.net/DTD/sodipodi-0.dtd"
   xmlns:xlink="http://www.w3.org/1999/xlink"
   xmlns="http://www.w3.org/2000/svg"
   xmlns:svg="http://www.w3.org/2000/svg"><sodipodi:namedview
     id="namedview1"
     pagecolor="#ffffff"
     bordercolor="#000000"
     borderopacity="0.25"
     inkscape:showpageshadow="2"
     inkscape:pageopacity="0.0"
     inkscape:pagecheckerboard="0"
     inkscape:deskcolor="#d1d1d1"
     inkscape:document-units="mm"
     inkscape:zoom="3.9156336"
     inkscape:cx="424.96316"
     inkscape:cy="96.919182"
     inkscape:window-width="1920"
     inkscape:window-height="1017"
     inkscape:window-x="-8"
     inkscape:window-y="-8"
     inkscape:window-maximized="1"
     inkscape:current-layer="layer1"
     showguides="true" /><defs
     id="defs1"><linearGradient
       id="linearGradient68"
       inkscape:collect="always"><stop
         style="stop-color:#000000;stop-opacity:0.49732618;"
         offset="0"
         id="stop68" /><stop
         style="stop-color:#000000;stop-opacity:0;"
         offset="1"
         id="stop69" /></linearGradient><linearGradient
       id="linearGradient66"
       inkscape:collect="always"><stop
         style="stop-color:#000000;stop-opacity:0.497326;"
         offset="0"
         id="stop66" /><stop
         style="stop-color:#000000;stop-opacity:0;"
         offset="0.99999994"
         id="stop67" /></linearGradient><linearGradient
       inkscape:collect="always"
       xlink:href="#linearGradient66"
       id="linearGradient67"
       x1="101.70308"
       y1="41.319649"
       x2="101.70308"
       y2="38.245522"
       gradientUnits="userSpaceOnUse"
       gradientTransform="translate(79.193229,-21.352441)" /><linearGradient
       inkscape:collect="always"
       xlink:href="#linearGradient68"
       id="linearGradient69"
       x1="96.102921"
       y1="41.319702"
       x2="96.102921"
       y2="38.245468"
       gradientUnits="userSpaceOnUse"
       gradientTransform="translate(79.193229,-21.352441)" /><linearGradient
       id="linearGradient55"
       inkscape:collect="always"><stop
         style="stop-color:#ffcc00;stop-opacity:1;"
         offset="0.14563106"
         id="stop56" /><stop
         style="stop-color:#ffcc00;stop-opacity:0;"
         offset="1"
         id="stop57" /></linearGradient><linearGradient
       id="linearGradient54"
       inkscape:collect="always"><stop
         style="stop-color:#313132;stop-opacity:1;"
         offset="0.32038835"
         id="stop54" /><stop
         style="stop-color:#313132;stop-opacity:0;"
         offset="1"
         id="stop55" /></linearGradient><radialGradient
       inkscape:collect="always"
       xlink:href="#linearGradient54"
       id="radialGradient55"
       cx="104.88563"
       cy="31.767023"
       fx="104.88563"
       fy="31.767023"
       r="24.261547"
       gradientTransform="matrix(1,0,0,0.05180094,-204.88564,25.915257)"
       gradientUnits="userSpaceOnUse" /><radialGradient
       inkscape:collect="always"
       xlink:href="#linearGradient55"
       id="radialGradient57"
       cx="104.41886"
       cy="31.571213"
       fx="104.41886"
       fy="31.571213"
       r="6.5948753"
       gradientTransform="matrix(1.4337925,0,0,0.17553192,-263.93788,21.956032)"
       gradientUnits="userSpaceOnUse" /><radialGradient
       inkscape:collect="always"
       xlink:href="#linearGradient55"
       id="radialGradient57-5"
       cx="104.41886"
       cy="31.571213"
       fx="104.41886"
       fy="31.571213"
       r="6.5948753"
       gradientTransform="matrix(1.4337925,0,0,0.17553192,-238.7008,22.002104)"
       gradientUnits="userSpaceOnUse" /><radialGradient
       inkscape:collect="always"
       xlink:href="#linearGradient55"
       id="radialGradient57-5-7"
       cx="104.41886"
       cy="31.571213"
       fx="104.41886"
       fy="31.571213"
       r="6.5948753"
       gradientTransform="matrix(1.4337925,0,0,0.17553192,-239.43385,22.002104)"
       gradientUnits="userSpaceOnUse" /></defs><g
     inkscape:label="圖層 1"
     inkscape:groupmode="layer"
     id="layer1"><g
       id="g3"
       transform="translate(-77.936096,25.607971)"><path
         id="rect1"
         style="fill:#9ea09c;fill-opacity:1;stroke-width:1.75592"
         d="m 173.0637,4.427381 -1.85053,5.279264 v 0.420646 H 170.653 l -0.95188,4.53409 v 17.143657 l -73.790845,5.058089 -2.714046,5.978446 2.130619,13.048816 75.188172,14.364498 0.53072,14.962392 4.20543,39.851321 -19.90111,2.91248 -1.048,0.64647 -1.1467,1.63556 -0.42736,1.14257 -0.46561,3.9026 v 0.25477 l 0.57774,2.46496 1.41025,1.65261 1.63763,0.89401 17.64647,2.20348 3.11402,-4.46433 1.0635,10.07639 h 0.25632 0.19223 l 1.0635,-10.07639 3.11403,4.46433 17.64647,-2.20348 1.63762,-0.89401 1.41025,-1.65261 0.57775,-2.46496 v -0.25477 l -0.46561,-3.9026 -0.42736,-1.14257 -1.1467,-1.63556 -1.048,-0.64647 -19.90111,-2.91248 4.20543,-39.851321 0.53071,-14.962392 75.18818,-14.364498 2.13062,-13.048816 -2.71405,-5.978446 -73.79084,-5.058089 V 14.661381 l -0.95188,-4.53409 h -0.56018 V 9.706645 l -1.85053,-5.279264 h -3.9331 z" /><path
         id="rect18"
         style="fill:#f5c300;fill-opacity:1;stroke-width:1.612"
         d="m 176.03796,-0.607971 -2.97191,5.023466 v 0.171049 h 4.69997 0.33435 4.69997 V 4.415495 l -2.97191,-5.023466 h -1.72806 -0.33435 z" /><path
         id="rect19"
         style="fill:#000000;fill-opacity:1;stroke-width:1.612"
         d="m 173.06347,4.427381 -0.21291,0.606681 h 10.17096 l -0.21291,-0.606681 h -3.93309 z" /><path
         id="rect22"
         style="fill:#4f5a5a;fill-opacity:1;stroke-width:1.612"
         d="m 185.78814,12.837459 -16.08739,17.277499 v 1.690336 l -2.80034,0.191719 v 1.125513 8.387602 21.952665 l -13.99243,-30.506665 -33.63567,2.305802 12.66951,27.624154 38.57284,7.369059 0.31367,8.844422 13.68134,9.120373 0.31677,-3.002401 0.53072,-14.962394 4.52789,-0.865063 -3.65972,-2.440161 v -9.319845 l 22.60068,-24.27242 -22.65494,-1.552877 v -17.14314 z m 36.62206,21.451404 6.88795,27.571444 31.24719,-5.969662 2.13062,-13.048816 -2.71405,-5.978446 z m -109.24605,1.391646 -17.254242,1.182874 -2.714046,5.978446 2.025199,12.404411 z m 69.63089,68.785461 -9.49864,2.08101 1.78335,16.90233 5.84719,-1.28106 z m 8.6093,22.18056 3.41736,14.57276 5.16248,-0.64441 1.63762,-0.89452 1.41025,-1.65209 0.57774,-2.46497 v -0.25476 l -0.4656,-3.90261 -0.42736,-1.14256 -1.1467,-1.63556 -1.048,-0.64647 z m -30.31495,0.49506 -5.7397,0.83975 -1.048,0.64647 -1.1467,1.63556 -0.42736,1.14256 -0.46561,3.90261 v 0.25476 l 0.57775,2.46497 1.41025,1.65209 1.63762,0.89401 5.20175,0.65008 z" /><path
         id="rect21"
         style="fill:#f5c300;fill-opacity:1;stroke-width:1.56143"
         d="m 172.86245,5.000472 -1.64951,4.706173 v 0.420646 h -0.56018 l -0.95188,4.53409 V 31.690833 H 186.1712 V 14.661381 l -0.95188,-4.53409 h -0.56018 V 9.706645 l -1.64951,-4.706173 z" /><path
         id="rect32"
         style="fill:#38372d;fill-opacity:1;stroke-width:1.75492"
         d="m 175.592,47.164824 v 6.148462 h 4.76198 v -6.148462 h -1.39371 -1.98696 z m -0.33797,0.05064 -2.48047,6.097819 h 2.48047 z m 5.43791,0.03049 v 6.06733 h 2.46807 z m -8.20673,6.776847 -0.0119,0.02894 v 11.963611 l 2.20607,5.96191 2.28306,0.999422 h 0.0109 1.98696 0.0109 l 2.28306,-0.999422 2.20607,-5.96191 v -11.96361 l -0.0119,-0.02894 z" /><g
         id="g46"
         transform="translate(76.893229,-21.352441)"><path
           id="rect40"
           style="fill:#323232;fill-opacity:1;stroke-width:1.612"
           d="m 61.03245,-52.788509 h 5.896798 v 5.9955 h 2.972945 v -5.9955 h 5.9955 v -2.973462 h -5.9955 v -5.896798 h -2.972945 v 5.896798 H 61.03245 Z"
           transform="rotate(90)" /><path
           id="rect41"
           style="fill:#f2f2f2;fill-opacity:1;stroke-width:0.708513"
           d="m 51.888751,61.03245 v 5.677173 h 0.574126 V 61.03245 Z m 0,9.190654 v 5.675106 h 0.574126 v -5.675106 z" /><path
           id="rect42"
           style="fill:#f2f2f2;fill-opacity:1;stroke-width:0.708513"
           d="m 55.98876,61.03245 v 5.677173 h 0.574125 V 61.03245 Z m 0,9.190654 v 5.675106 h 0.574125 v -5.675106 z" /><path
           id="path45"
           style="fill:#f2f2f2;fill-opacity:1;stroke-width:0.708513"
           d="m 46.793,70.802335 h 5.677173 V 70.228209 H 46.793 Z m 9.190654,0 h 5.675106 v -0.574126 h -5.675106 z" /><path
           id="path46"
           style="fill:#f2f2f2;fill-opacity:1;stroke-width:0.708513"
           d="m 46.793,66.702326 h 5.677173 V 66.128201 H 46.793 Z m 9.190654,0 h 5.675106 v -0.574125 h -5.675106 z" /></g><g
         id="g51"
         transform="translate(170.39323,-21.352441)"><path
           id="path47"
           style="fill:#323232;fill-opacity:1;stroke-width:1.612"
           d="m 61.03245,-52.788509 h 5.896798 v 5.9955 h 2.972945 v -5.9955 h 5.9955 v -2.973462 h -5.9955 v -5.896798 h -2.972945 v 5.896798 H 61.03245 Z"
           transform="rotate(90)" /><path
           id="path48"
           style="fill:#f2f2f2;fill-opacity:1;stroke-width:0.708513"
           d="m 51.888751,61.03245 v 5.677173 h 0.574126 V 61.03245 Z m 0,9.190654 v 5.675106 h 0.574126 v -5.675106 z" /><path
           id="path49"
           style="fill:#f2f2f2;fill-opacity:1;stroke-width:0.708513"
           d="m 55.98876,61.03245 v 5.677173 h 0.574125 V 61.03245 Z m 0,9.190654 v 5.675106 h 0.574125 v -5.675106 z" /><path
           id="path50"
           style="fill:#f2f2f2;fill-opacity:1;stroke-width:0.708513"
           d="m 46.793,70.802335 h 5.677173 V 70.228209 H 46.793 Z m 9.190654,0 h 5.675106 v -0.574126 h -5.675106 z" /><path
           id="path51"
           style="fill:#f2f2f2;fill-opacity:1;stroke-width:0.708513"
           d="m 46.793,66.702326 h 5.677173 V 66.128201 H 46.793 Z m 9.190654,0 h 5.675106 v -0.574125 h -5.675106 z" /></g><path
         id="path52"
         style="fill:#323232;fill-opacity:1;stroke-width:1.03676"
         d="m 171.81342,84.826609 v 5.8968 h -0.18707 l 0.94671,8.96844 h 0.47025 v -5.9955 h 2.43913 v -2.97294 h -2.43913 v -5.8968 z" /><path
         id="path53"
         style="fill:#f2f2f2;fill-opacity:1;stroke-width:0.45568"
         d="m 171.44134,84.826609 v 4.14186 l 0.16227,1.53531 h 0.0749 v -0.007 h 0.003 v -0.57413 h -0.003 v -5.09581 z m 1.69603,0 v 5.09581 h -0.002 v 0.57413 h 0.002 v 0.007 h 0.23719 v -0.007 h 2.10788 v -0.57413 h -2.10788 v -5.09581 z m 0,9.19065 v 0.005 h -0.002 v 0.57412 h 0.002 v 5.09582 h 0.23719 v -5.09582 h 2.10788 v -0.57412 h -2.10788 v -0.005 z" /><path
         id="path57"
         style="fill:#323232;fill-opacity:1;stroke-width:1.03676"
         d="m 182.61327,84.826609 v 5.8968 h -2.47995 v 2.97294 h 2.47995 v 5.9955 h 0.68575 l 0.54415,-5.15576 v -0.83974 h 0.0884 l 0.31419,-2.97294 h -0.40256 v -5.8968 z" /><path
         id="path58"
         style="fill:#f2f2f2;fill-opacity:1;stroke-width:0.45568"
         d="m 182.2412,84.826609 v 5.09581 h -2.10788 v 0.57413 h 2.10788 v 0.007 h 0.2372 v -0.007 h 0.003 v -0.57413 h -0.003 v -5.09581 z m 1.69602,0 v 5.09581 h -0.003 v 0.57413 h 0.003 v 0.007 h 0.2372 v -0.007 h 0.0951 l 0.0605,-0.57413 h -0.15555 v -5.09581 z m -1.69602,9.19065 v 0.005 h -2.10788 v 0.57412 h 2.10788 v 5.09582 h 0.2372 v -5.09582 h 0.003 v -0.57412 h -0.003 v -0.005 z" /><path
         id="rect63"
         style="fill:#f5c300;fill-opacity:1;stroke-width:1.61585"
         d="m 176.74541,139.23569 0.96635,9.15448 h 0.25632 0.19223 l 0.96635,-9.15448 z" /><path
         id="rect64"
         style="fill:url(#linearGradient69);fill-opacity:0.497326;stroke-width:2.01916"
         d="m 174.20758,9.899398 -0.44855,5.758822 v 10.114111 a 1.55882,1.55882 0 0 0 1.12655,1.188558 h 0.7984 a 1.55882,1.55882 0 0 0 1.14928,-1.328601 v -9.891386 l -0.4749,-5.841504 z" /><path
         id="path66"
         style="fill:url(#linearGradient67);fill-opacity:0.497326;stroke-width:2.01916"
         d="m 181.98491,9.899398 0.44855,5.758822 v 10.114111 a 1.55882,1.55882 0 0 1 -1.12655,1.188558 h -0.7984 a 1.55882,1.55882 0 0 1 -1.14928,-1.328601 v -9.891386 l 0.47491,-5.841504 z" /></g><ellipse
       style="fill:url(#radialGradient57-5);stroke-width:0.557246"
       id="path55-1"
       cx="-88.985863"
       cy="27.543858"
       rx="9.4556828"
       ry="1.1576111"
       transform="scale(-1,1)" /><ellipse
       style="fill:url(#radialGradient55);stroke-width:0.611511"
       id="path51-7"
       cx="-100"
       cy="27.560822"
       rx="24.261547"
       ry="1.2567708"
       transform="scale(-1,1)" /><ellipse
       style="fill:url(#radialGradient57-5-7);stroke-width:0.557246"
       id="path55-1-2"
       cx="-89.718872"
       cy="27.543858"
       rx="9.4556828"
       ry="1.1576111"
       transform="scale(-1,1)" /><ellipse
       style="fill:url(#radialGradient57);stroke-width:0.557246"
       id="path55"
       cx="-114.22285"
       cy="27.497786"
       rx="9.4556828"
       ry="1.1576111"
       transform="scale(-1,1)" /></g></svg>
