<?xml version="1.0" encoding="UTF-8" standalone="no"?>
<!-- Created with Inkscape (http://www.inkscape.org/) -->

<svg
   width="200mm"
   height="200mm"
   viewBox="0 0 200 200"
   version="1.1"
   id="svg1"
   xml:space="preserve"
   inkscape:version="1.4 (86a8ad7, 2024-10-11)"
   sodipodi:docname="spitfire left 3.svg"
   xmlns:inkscape="http://www.inkscape.org/namespaces/inkscape"
   xmlns:sodipodi="http://sodipodi.sourceforge.net/DTD/sodipodi-0.dtd"
   xmlns:xlink="http://www.w3.org/1999/xlink"
   xmlns="http://www.w3.org/2000/svg"
   xmlns:svg="http://www.w3.org/2000/svg"><sodipodi:namedview
     id="namedview1"
     pagecolor="#ffffff"
     bordercolor="#000000"
     borderopacity="0.25"
     inkscape:showpageshadow="2"
     inkscape:pageopacity="0.0"
     inkscape:pagecheckerboard="0"
     inkscape:deskcolor="#d1d1d1"
     inkscape:document-units="mm"
     showguides="false"
     inkscape:zoom="0.69219275"
     inkscape:cx="392.95413"
     inkscape:cy="175.52914"
     inkscape:window-width="1920"
     inkscape:window-height="1017"
     inkscape:window-x="-8"
     inkscape:window-y="-8"
     inkscape:window-maximized="1"
     inkscape:current-layer="layer1" /><defs
     id="defs1"><linearGradient
       id="linearGradient55"
       inkscape:collect="always"><stop
         style="stop-color:#ffcc00;stop-opacity:1;"
         offset="0.14563106"
         id="stop56" /><stop
         style="stop-color:#ffcc00;stop-opacity:0;"
         offset="1"
         id="stop57" /></linearGradient><linearGradient
       id="linearGradient54"
       inkscape:collect="always"><stop
         style="stop-color:#313132;stop-opacity:1;"
         offset="0.32038835"
         id="stop54" /><stop
         style="stop-color:#313132;stop-opacity:0;"
         offset="1"
         id="stop55" /></linearGradient><radialGradient
       inkscape:collect="always"
       xlink:href="#linearGradient54"
       id="radialGradient11"
       gradientUnits="userSpaceOnUse"
       gradientTransform="matrix(1,0,0,0.05180094,-206.27192,21.633066)"
       cx="104.88563"
       cy="31.767023"
       fx="104.88563"
       fy="31.767023"
       r="24.261547" /><radialGradient
       inkscape:collect="always"
       xlink:href="#linearGradient55"
       id="radialGradient57-4"
       cx="104.41886"
       cy="31.571213"
       fx="104.41886"
       fy="31.571213"
       r="6.5948753"
       gradientTransform="matrix(1.4337925,0,0,0.17553192,-48.061963,17.610763)"
       gradientUnits="userSpaceOnUse" /><radialGradient
       inkscape:collect="always"
       xlink:href="#linearGradient55"
       id="radialGradient57-5-2"
       cx="104.41886"
       cy="31.571213"
       fx="104.41886"
       fy="31.571213"
       r="6.5948753"
       gradientTransform="matrix(1.4337925,0,0,0.17553192,-58.924813,17.656835)"
       gradientUnits="userSpaceOnUse" /><radialGradient
       inkscape:collect="always"
       xlink:href="#linearGradient55"
       id="radialGradient57-5-7-3"
       cx="104.41886"
       cy="31.571213"
       fx="104.41886"
       fy="31.571213"
       r="6.5948753"
       gradientTransform="matrix(1.4337925,0,0,0.17553192,-37.257833,17.656835)"
       gradientUnits="userSpaceOnUse" /></defs><g
     inkscape:label="圖層 1"
     inkscape:groupmode="layer"
     id="layer1"><rect
       style="fill:#afafaf;fill-opacity:1;stroke-width:2.09749"
       id="rect64"
       width="9.7606726"
       height="1.3366526"
       x="-199.37993"
       y="33.952316"
       transform="matrix(-0.6881162,-0.72560051,-0.72560051,0.6881162,0,0)" /><path
       id="rect37"
       style="fill:#8c9093;fill-opacity:1;stroke-width:1.58045"
       d="m 119.54136,49.301633 v 11.77154 l -1.3031,4.041558 -0.38759,0.980878 h -3.34441 v -14.4421 h 2.94821 v -2.351876 z" /><path
       id="rect1"
       style="fill:#817358;fill-opacity:1;stroke-width:4.32695"
       d="m 107.7906,26.042784 2.74402,2.34225 2.36657,3.432563 1.63547,4.052706 0.47017,1.407477 0.92667,5.073608 1.66334,12.755965 V 86.06781 l -1.06195,16.18701 -1.32286,13.69377 -8.05576,57.59563 -1.26663,4.19204 -2.04181,2.48766 -5.223574,1.54225 h -3.45587 l -7.81206,-0.77164 -4.36378,-1.56757 -3.20052,-2.33161 -1.80115,-2.2394 -0.31159,-1.53009 -0.0978,-1.76163 1.35378,-3.15745 1.02647,-1.80621 1.24028,-1.09589 11.00549,-6.26373 -0.008,-0.0131 0.041,0.0192 2.46537,-5.29198 -0.038,-0.0177 -2.48158,-31.09877 -0.58417,-9.92632 -0.81519,-21.04174 0.005,-5.07e-4 -1.02901,-3.498936 -0.36479,-3.39507 0.39975,-4.89476 2.00937,-2.649788 h 0.0932 v -0.123116 l 2.99684,-3.952388 h 9.8e-4 v -9.8e-4 l 0.003,-0.0035 -0.003,-0.0021 v -24.24333 l 1.0047,-16.337989 1.03863,-6.725292 z m -30.770974,131.200436 -0.20773,0.48486 -0.0248,-0.4418 z" /><path
       id="path10"
       style="fill:#6c6d5b;fill-opacity:1;stroke-width:4.32695"
       d="M 96.94137 26.042855 L 95.90319 32.768026 L 95.621554 37.348108 L 113.53157 33.379358 L 112.90112 31.817696 L 110.53486 28.384831 L 107.79084 26.042855 L 96.94137 26.042855 z M 117.59696 63.314482 L 94.898083 67.694059 L 94.898083 73.349528 L 94.901184 73.351595 L 94.898083 73.355212 L 94.898083 73.355729 L 94.89705 73.355729 L 91.900334 77.308459 L 91.900334 77.431449 L 91.807316 77.431449 L 89.798136 80.081417 L 89.398161 84.976208 L 89.762996 88.37135 L 90.791874 91.869845 L 90.786707 91.870361 L 91.097282 99.887443 L 91.368583 106.89012 L 101.15145 102.44026 L 104.54246 102.44026 L 104.54246 94.056791 L 117.23367 91.608362 L 117.59696 86.067615 L 117.59696 63.314482 z M 115.39812 114.0225 L 92.069832 120.86239 L 92.186104 122.8385 L 94.668123 153.93737 L 94.705847 153.95494 L 94.308972 154.80709 L 97.809017 154.80709 L 97.809017 175.11334 L 98.381075 175.11334 L 98.381075 154.80709 L 109.77676 154.80709 L 111.43454 142.95768 L 111.13172 142.95768 L 111.44746 142.86518 L 115.21209 115.94848 L 115.39812 114.0225 z " /><path
       id="rect39"
       style="fill:#8c9093;fill-opacity:1;stroke-width:1.58045"
       d="m 120.56277,65.792125 0.8451,1.646617 0.43774,1.420651 0.18544,4.111477 -0.32527,4.480825 -1.51641,8.259939 -2.31438,0.749845 h -2.04181 V 65.792125 Z" /><path
       id="rect44"
       style="fill:#8c9093;fill-opacity:1;stroke-width:1.58045"
       d="m 115.36656,90.037424 1.95415,0.2361 -0.78582,11.981296 -1.32286,13.69378 -7.73961,55.33647 h -1.92021 z" /><path
       id="path45"
       style="fill:#89837d;fill-opacity:1;stroke-width:1.58045"
       d="m 98.458586,154.8194 a 0.81978555,10.165341 0 0 1 0.81976,10.16495 0.81978555,10.165341 0 0 1 -0.81976,10.16545 0.81978555,10.165341 0 0 1 -0.0765,-0.0446 v -20.24124 a 0.81978555,10.165341 0 0 1 0.0765,-0.0446 z" /><rect
       style="fill:#363b5a;fill-opacity:1;stroke-width:1.58045"
       id="rect45"
       width="15.535315"
       height="2.74932"
       x="-96.519791"
       y="168.71503"
       transform="scale(-1,1)" /><rect
       style="fill:#cdc6ba;fill-opacity:1;stroke-width:1.58045"
       id="rect46"
       width="15.535315"
       height="2.74932"
       x="-96.519791"
       y="165.97029"
       transform="scale(-1,1)" /><path
       id="rect47"
       style="fill:#8e3616;fill-opacity:1;stroke-width:1.58045"
       d="m 96.519626,163.22526 v 2.74909 h -15.53495 v -0.27765 l 0.21735,-0.19202 4.00508,-2.27942 z" /><circle
       style="fill:#e0ae29;fill-opacity:1;stroke-width:1.74417"
       id="circle51-7"
       cx="-102.08103"
       cy="115.24638"
       r="9.9431372"
       transform="scale(-1,1)" /><circle
       style="fill:#3d4453;fill-opacity:1;stroke-width:2.80137"
       id="circle52-6"
       cx="-101.98792"
       cy="115.15327"
       r="7.2804613"
       transform="scale(-1,1)" /><circle
       style="fill:#d4d6cf;fill-opacity:1;stroke-width:3.28796"
       id="circle53-1"
       cx="-102.07104"
       cy="115.17056"
       r="4.7549043"
       transform="scale(-1,1)" /><circle
       style="fill:#ae5757;fill-opacity:1;stroke-width:2.29712"
       id="circle54-4"
       cx="-102.1162"
       cy="115.14349"
       r="2.0461464"
       transform="scale(-1,1)" /><rect
       style="fill:#8e8178;fill-opacity:1;stroke-width:1.58045"
       id="rect54"
       width="1.954336"
       height="6.1611271"
       x="-102.01842"
       y="32.242764"
       transform="scale(-1,1)" /><rect
       style="fill:#8e8178;fill-opacity:1;stroke-width:1.43341"
       id="rect55"
       width="1.954336"
       height="5.0680242"
       x="-102.01842"
       y="38.727989"
       transform="scale(-1,1)" /><rect
       style="fill:#8e8178;fill-opacity:1;stroke-width:1.43341"
       id="rect56"
       width="1.954336"
       height="5.0680242"
       x="-102.01842"
       y="44.120434"
       transform="scale(-1,1)" /><path
       id="rect57"
       style="fill:#38372d;fill-opacity:1;stroke-width:1.58045"
       d="m 95.099486,76.588361 1.17087,2.499312 0.70526,4.362269 v 0.201647 l -7.28819,-2.216093 0.11046,-1.354279 0.08,-0.105891 0.57202,0.657634 z m -5.52098,6.180641 7.39711,2.249026 v 7.450816 h -6.16494 l -0.0233,-0.598354 0.005,-5.07e-4 -1.02901,-3.498936 -0.36479,-3.395071 z m 5.56658,10.356463 v 6.955815 h -4.03954 l -0.26953,-6.955815 z" /><rect
       style="fill:#afafaf;fill-opacity:1;stroke-width:1.35846"
       id="rect65"
       width="2.6373417"
       height="1.47973"
       x="-170.72623"
       y="107.36605"
       transform="matrix(-0.91546905,-0.4023884,-0.4023884,0.91546905,0,0)" /><circle
       style="fill:#444545;fill-opacity:1;stroke-width:1.58045"
       id="path63"
       cx="-111.35844"
       cy="170.33076"
       r="2.3949449"
       transform="scale(-1,1)" /><circle
       style="fill:#afafaf;fill-opacity:1;stroke-width:1.58045"
       id="path64"
       cx="-111.31159"
       cy="170.35417"
       r="1.3760686"
       transform="scale(-1,1)" /><ellipse
       style="fill:url(#radialGradient57-5-2);stroke-width:0.557246"
       id="path55-1-21"
       cx="90.790115"
       cy="23.198584"
       rx="9.4556828"
       ry="1.1576111" /><path
       id="path7"
       style="fill:#303135;fill-opacity:1;stroke-width:0.264583"
       d="m 101.75685,19.937776 v 0.02325 l 0.40773,0.08372 0.82217,0.549837 0.61805,0.728638 2.56315,4.720125 h -4.4111 -0.39016 -4.4111 l 2.56315,-4.720125 0.61805,-0.728638 0.82217,-0.549837 0.40773,-0.08372 v -0.02325 h 0.11369 0.16278 z" /><ellipse
       style="fill:url(#radialGradient57-5-7-3);stroke-width:0.557246"
       id="path55-1-2-6"
       cx="112.45712"
       cy="23.198584"
       rx="9.4556828"
       ry="1.1576111" /><ellipse
       style="fill:url(#radialGradient11);stroke-width:0.611511"
       id="ellipse7"
       cx="-101.38628"
       cy="23.278625"
       rx="24.261547"
       ry="1.2567708"
       transform="scale(-1,1)" /><path
       id="rect34"
       style="fill:#8c9093;fill-opacity:1;stroke-width:1.58045"
       d="m 107.7906,26.042783 2.74402,2.34225 2.36657,3.432564 1.63548,4.052703 0.47017,1.407478 0.92666,5.073608 1.31882,10.113777 h -0.60444 L 105.57096,26.042782 Z" /><path
       id="rect16"
       style="fill:#89837d;fill-opacity:1;stroke-width:1.58045"
       d="m 116.58657,47.358625 1.01027,7.748728 V 86.06781 l -0.4109,6.262719 h -1.54883 l -0.61153,-0.208234 -1.29298,-0.878534 -1.66384,-1.655737 -0.59177,-0.826855 -1.31628,-2.297157 -0.29234,-0.629262 -1.26308,-3.276008 -1.11716,-4.039532 -0.82585,-3.90831 -0.86789,-6.163922 v -4.648526 l 0.30399,-4.061319 1.58987,-4.747324 2.18114,-3.43003 3.85004,-3.030283 0.98341,-0.568969 z" /><ellipse
       style="fill:url(#radialGradient57-4);stroke-width:0.557246"
       id="path55-5"
       cx="101.65302"
       cy="23.152512"
       rx="9.4556828"
       ry="1.1576111" /></g></svg>
