<?xml version="1.0" encoding="UTF-8" standalone="no"?>
<!-- Created with Inkscape (http://www.inkscape.org/) -->

<svg
   width="200mm"
   height="200mm"
   viewBox="0 0 200 200"
   version="1.1"
   id="svg1"
   xml:space="preserve"
   inkscape:version="1.4 (86a8ad7, 2024-10-11)"
   sodipodi:docname="spitfire right 2.svg"
   xmlns:inkscape="http://www.inkscape.org/namespaces/inkscape"
   xmlns:sodipodi="http://sodipodi.sourceforge.net/DTD/sodipodi-0.dtd"
   xmlns:xlink="http://www.w3.org/1999/xlink"
   xmlns="http://www.w3.org/2000/svg"
   xmlns:svg="http://www.w3.org/2000/svg"><sodipodi:namedview
     id="namedview1"
     pagecolor="#ffffff"
     bordercolor="#000000"
     borderopacity="0.25"
     inkscape:showpageshadow="2"
     inkscape:pageopacity="0.0"
     inkscape:pagecheckerboard="0"
     inkscape:deskcolor="#d1d1d1"
     inkscape:document-units="mm"
     showguides="false"
     inkscape:zoom="2.768771"
     inkscape:cx="451.46384"
     inkscape:cy="90.112183"
     inkscape:window-width="1920"
     inkscape:window-height="1017"
     inkscape:window-x="-8"
     inkscape:window-y="-8"
     inkscape:window-maximized="1"
     inkscape:current-layer="layer1" /><defs
     id="defs1"><linearGradient
       id="linearGradient55"
       inkscape:collect="always"><stop
         style="stop-color:#ffcc00;stop-opacity:1;"
         offset="0.14563106"
         id="stop56" /><stop
         style="stop-color:#ffcc00;stop-opacity:0;"
         offset="1"
         id="stop57" /></linearGradient><linearGradient
       id="linearGradient54"
       inkscape:collect="always"><stop
         style="stop-color:#313132;stop-opacity:1;"
         offset="0.32038835"
         id="stop54" /><stop
         style="stop-color:#313132;stop-opacity:0;"
         offset="1"
         id="stop55" /></linearGradient><radialGradient
       inkscape:collect="always"
       xlink:href="#linearGradient54"
       id="radialGradient11"
       gradientUnits="userSpaceOnUse"
       gradientTransform="matrix(1,0,0,0.05180094,-3.8369922,21.633066)"
       cx="104.88563"
       cy="31.767023"
       fx="104.88563"
       fy="31.767023"
       r="24.261547" /><radialGradient
       inkscape:collect="always"
       xlink:href="#linearGradient55"
       id="radialGradient57"
       cx="104.41886"
       cy="31.571213"
       fx="104.41886"
       fy="31.571213"
       r="6.5948753"
       gradientTransform="matrix(1.4337925,0,0,0.17553192,-56.133994,17.592735)"
       gradientUnits="userSpaceOnUse" /><radialGradient
       inkscape:collect="always"
       xlink:href="#linearGradient55"
       id="radialGradient57-5"
       cx="104.41886"
       cy="31.571213"
       fx="104.41886"
       fy="31.571213"
       r="6.5948753"
       gradientTransform="matrix(1.4337925,0,0,0.17553192,-56.196944,17.638807)"
       gradientUnits="userSpaceOnUse" /><radialGradient
       inkscape:collect="always"
       xlink:href="#linearGradient55"
       id="radialGradient57-5-7"
       cx="104.41886"
       cy="31.571213"
       fx="104.41886"
       fy="31.571213"
       r="6.5948753"
       gradientTransform="matrix(1.4337925,0,0,0.17553192,-34.329984,17.638807)"
       gradientUnits="userSpaceOnUse" /></defs><g
     inkscape:label="圖層 1"
     inkscape:groupmode="layer"
     id="layer1"><ellipse
       style="fill:url(#radialGradient57-5);stroke-width:0.557246"
       id="path55-1"
       cx="93.517975"
       cy="23.180559"
       rx="9.4556828"
       ry="1.1576111" /><rect
       style="fill:#afafaf;fill-opacity:1;stroke-width:2.09749"
       id="rect64"
       width="9.7606726"
       height="1.3366526"
       x="-60.081181"
       y="180.8392"
       transform="rotate(-46.518826)" /><path
       id="rect37"
       style="fill:#8c9093;fill-opacity:1;stroke-width:1.58045"
       d="m 82.893563,49.301633 v 11.77154 l 1.303107,4.041558 0.387589,0.980878 h 3.344406 v -14.4421 H 84.98046 v -2.351876 z" /><path
       id="rect1"
       style="fill:#817358;fill-opacity:1;stroke-width:4.32695"
       d="m 94.644331,26.042784 -2.744025,2.34225 -2.366569,3.432563 -1.635471,4.052706 -0.470173,1.407477 -0.926665,5.073608 -1.663337,12.755965 V 86.06781 l 1.061942,16.18701 1.322867,13.69377 8.055758,57.59563 1.266628,4.19204 2.041807,2.48766 5.223577,1.54225 h 3.45587 l 7.81206,-0.77164 4.36378,-1.56757 3.20052,-2.33161 1.80115,-2.2394 0.31159,-1.53009 0.0978,-1.76163 -1.35378,-3.15745 -1.02647,-1.80621 -1.24028,-1.09589 -11.00549,-6.26373 0.008,-0.0131 -0.041,0.0192 -2.46537,-5.29198 0.038,-0.0177 2.48158,-31.09877 0.58417,-9.92632 0.81519,-21.04174 -0.005,-5.07e-4 1.02901,-3.498936 0.36479,-3.39507 -0.39975,-4.89476 -2.00937,-2.649788 h -0.0932 v -0.123116 l -2.99684,-3.952388 h -9.8e-4 v -9.8e-4 l -0.003,-0.0035 0.003,-0.0021 v -24.24333 l -1.0047,-16.337989 -1.03863,-6.725292 z m 30.770969,131.200436 0.20773,0.48486 0.0248,-0.4418 z" /><path
       id="rect39"
       style="fill:#8c9093;fill-opacity:1;stroke-width:1.58045"
       d="m 81.872154,65.792125 -0.845095,1.646617 -0.437747,1.420651 -0.185434,4.111477 0.325269,4.480825 1.516409,8.259939 2.314384,0.749845 h 2.041805 V 65.792125 Z" /><path
       id="rect19"
       style="fill:#6c6d5b;fill-opacity:1;stroke-width:0.264583"
       d="M 94.644352 26.042855 L 91.900334 28.384831 L 89.533553 31.817696 L 87.898511 35.870162 L 87.428255 37.277828 L 86.50118 42.35142 L 86.121358 45.264421 L 107.30043 45.264421 L 106.532 32.768026 L 105.4933 26.042855 L 94.644352 26.042855 z M 107.53659 69.191125 L 106.12841 71.895353 L 102.97821 71.895353 L 102.97821 86.32393 L 102.96581 86.328064 L 102.96581 87.341956 L 100.00423 87.341956 L 85.253194 92.391777 L 85.900183 102.25474 L 86.751811 111.07074 L 111.22887 102.69089 L 111.64797 91.870361 L 111.6428 91.869845 L 112.67219 88.37135 L 113.03703 84.976208 L 112.63705 80.081417 L 110.62787 77.431449 L 110.53434 77.431449 L 110.53434 77.308459 L 108.83832 75.071387 L 107.53762 73.355729 L 107.53659 73.355729 L 107.53659 73.355212 L 107.53349 73.351595 L 107.53659 73.349528 L 107.53659 71.895353 L 107.53659 69.191125 z M 110.00621 125.875 L 89.148047 129.71146 L 93.738981 162.53788 L 104.04171 160.64291 L 104.04171 175.20894 L 104.07427 175.20894 L 104.05153 175.2353 L 105.30675 176.08434 L 105.30675 176.1169 L 105.35533 176.1169 L 111.89136 180.53678 L 116.3531 180.53678 L 119.44232 179.42677 L 122.64264 177.09513 L 124.44408 174.85599 L 124.75569 173.32585 L 124.85336 171.5642 L 123.49944 168.40677 L 122.47314 166.60068 L 121.23291 165.50463 L 110.22738 159.24093 L 110.23565 159.22801 L 110.19431 159.24713 L 107.72882 153.95494 L 107.76707 153.93737 L 110.00621 125.875 z M 125.41508 157.24312 L 125.62282 157.72784 L 125.64763 157.28652 L 125.41508 157.24312 z M 105.53826 160.36747 L 105.56462 160.44499 L 105.45041 160.44499 L 105.45041 160.38349 L 105.53826 160.36747 z " /><path
       id="rect44"
       style="fill:#8c9093;fill-opacity:1;stroke-width:1.58045"
       d="m 87.068371,90.037424 -1.954154,0.2361 0.785816,11.981296 1.322868,13.69378 7.739608,55.33647 h 1.920208 z" /><path
       id="path45"
       style="fill:#89837d;fill-opacity:1;stroke-width:1.58045"
       d="m 103.97634,154.8194 a 0.81978555,10.165341 0 0 0 -0.81976,10.16495 0.81978555,10.165341 0 0 0 0.81976,10.16545 0.81978555,10.165341 0 0 0 0.0765,-0.0446 v -20.24124 a 0.81978555,10.165341 0 0 0 -0.0765,-0.0446 z" /><rect
       style="fill:#363b5a;fill-opacity:1;stroke-width:1.58045"
       id="rect45"
       width="15.535315"
       height="2.74932"
       x="105.91514"
       y="168.71503" /><rect
       style="fill:#cdc6ba;fill-opacity:1;stroke-width:1.58045"
       id="rect46"
       width="15.535315"
       height="2.74932"
       x="105.91514"
       y="165.97029" /><path
       id="rect47"
       style="fill:#8e3616;fill-opacity:1;stroke-width:1.58045"
       d="m 105.9153,163.22526 v 2.74909 h 15.53495 v -0.27765 l -0.21735,-0.19202 -4.00508,-2.27942 z" /><circle
       style="fill:#e0ae29;fill-opacity:1;stroke-width:1.74417"
       id="circle51-7"
       cx="100.3539"
       cy="115.24638"
       r="9.9431372" /><circle
       style="fill:#3d4453;fill-opacity:1;stroke-width:2.80137"
       id="circle52-6"
       cx="100.44701"
       cy="115.15327"
       r="7.2804613" /><circle
       style="fill:#d4d6cf;fill-opacity:1;stroke-width:3.28796"
       id="circle53-1"
       cx="100.36389"
       cy="115.17056"
       r="4.7549043" /><circle
       style="fill:#ae5757;fill-opacity:1;stroke-width:2.29712"
       id="circle54-4"
       cx="100.31873"
       cy="115.14349"
       r="2.0461464" /><rect
       style="fill:#8e8178;fill-opacity:1;stroke-width:1.58045"
       id="rect54"
       width="1.954336"
       height="6.1611271"
       x="100.41651"
       y="32.242764" /><rect
       style="fill:#8e8178;fill-opacity:1;stroke-width:1.43341"
       id="rect55"
       width="1.954336"
       height="5.0680242"
       x="100.41651"
       y="38.727989" /><rect
       style="fill:#8e8178;fill-opacity:1;stroke-width:1.43341"
       id="rect56"
       width="1.954336"
       height="5.0680242"
       x="100.41651"
       y="44.120434" /><path
       id="rect57"
       style="fill:#38372d;fill-opacity:1;stroke-width:1.58045"
       d="m 107.33544,76.588361 -1.17087,2.499312 -0.70526,4.362269 v 0.201647 l 7.28819,-2.216093 -0.11046,-1.354279 -0.08,-0.105891 -0.57202,0.657634 z m 5.52098,6.180641 -7.39711,2.249026 v 7.450816 h 6.16494 l 0.0233,-0.598354 -0.005,-5.07e-4 1.02901,-3.498936 0.36479,-3.395071 z m -5.56658,10.356463 v 6.955815 h 4.03954 l 0.26953,-6.955815 z" /><rect
       style="fill:#afafaf;fill-opacity:1;stroke-width:1.35846"
       id="rect65"
       width="2.6373417"
       height="1.47973"
       x="14.596676"
       y="188.82352"
       transform="rotate(-23.727574)" /><circle
       style="fill:#444545;fill-opacity:1;stroke-width:1.58045"
       id="path63"
       cx="91.076485"
       cy="170.33076"
       r="2.3949449" /><circle
       style="fill:#afafaf;fill-opacity:1;stroke-width:1.58045"
       id="path64"
       cx="91.123337"
       cy="170.35417"
       r="1.3760686" /><path
       id="path7"
       style="fill:#303135;fill-opacity:1;stroke-width:0.264583"
       d="m 100.67808,19.937776 v 0.02325 l -0.40773,0.08372 -0.822172,0.549837 -0.61805,0.728638 -2.56315,4.720125 h 4.411102 0.39016 4.4111 l -2.56315,-4.720125 -0.61805,-0.728638 -0.82217,-0.549837 -0.40773,-0.08372 v -0.02325 h -0.11369 -0.16278 z" /><ellipse
       style="fill:url(#radialGradient57-5-7);stroke-width:0.557246"
       id="path55-1-2"
       cx="115.38498"
       cy="23.180559"
       rx="9.4556828"
       ry="1.1576111" /><ellipse
       style="fill:url(#radialGradient11);stroke-width:0.611511"
       id="ellipse7"
       cx="101.04865"
       cy="23.278625"
       rx="24.261547"
       ry="1.2567708" /><ellipse
       style="fill:url(#radialGradient57);stroke-width:0.557246"
       id="path55"
       cx="93.580978"
       cy="23.134487"
       rx="9.4556828"
       ry="1.1576111" /><path
       id="rect34"
       style="fill:#8c9093;fill-opacity:1;stroke-width:1.58045"
       d="m 94.64433,26.042783 -2.744024,2.34225 -2.366569,3.432564 -1.635476,4.052703 -0.470172,1.407478 -0.926666,5.073608 -1.318813,10.113777 h 0.604435 L 96.863966,26.042782 Z" /><path
       id="rect16"
       style="fill:#89837d;fill-opacity:1;stroke-width:1.58045"
       d="m 85.848354,47.358625 -1.010263,7.748728 V 86.06781 l 0.410895,6.262719 h 1.548834 l 0.611527,-0.208234 1.292975,-0.878534 1.663844,-1.655737 0.591768,-0.826855 1.316281,-2.297157 0.292338,-0.629262 1.263082,-3.276008 1.117166,-4.039532 0.825842,-3.90831 0.867894,-6.163922 v -4.648526 l -0.303991,-4.061319 -1.589872,-4.747324 -2.181134,-3.43003 -3.850046,-3.030283 -0.98341,-0.568969 z" /></g></svg>
