<?xml version="1.0" encoding="UTF-8" standalone="no"?>
<!-- Created with Inkscape (http://www.inkscape.org/) -->

<svg
   width="210mm"
   height="210mm"
   viewBox="0 0 210 210"
   version="1.1"
   id="svg1"
   xml:space="preserve"
   inkscape:version="1.4 (86a8ad7, 2024-10-11)"
   sodipodi:docname="Spitfire 3.svg"
   xmlns:inkscape="http://www.inkscape.org/namespaces/inkscape"
   xmlns:sodipodi="http://sodipodi.sourceforge.net/DTD/sodipodi-0.dtd"
   xmlns:xlink="http://www.w3.org/1999/xlink"
   xmlns="http://www.w3.org/2000/svg"
   xmlns:svg="http://www.w3.org/2000/svg"><sodipodi:namedview
     id="namedview1"
     pagecolor="#ffffff"
     bordercolor="#666666"
     borderopacity="1.0"
     inkscape:showpageshadow="2"
     inkscape:pageopacity="0.0"
     inkscape:pagecheckerboard="0"
     inkscape:deskcolor="#d1d1d1"
     inkscape:document-units="mm"
     showguides="true"
     inkscape:zoom="2"
     inkscape:cx="457.5"
     inkscape:cy="188.75"
     inkscape:window-width="1920"
     inkscape:window-height="1017"
     inkscape:window-x="-8"
     inkscape:window-y="-8"
     inkscape:window-maximized="1"
     inkscape:current-layer="layer1"
     showgrid="false" /><defs
     id="defs1"><linearGradient
       id="linearGradient55"
       inkscape:collect="always"><stop
         style="stop-color:#ffcc00;stop-opacity:1;"
         offset="0.14563106"
         id="stop56" /><stop
         style="stop-color:#ffcc00;stop-opacity:0;"
         offset="1"
         id="stop57" /></linearGradient><linearGradient
       id="linearGradient54"
       inkscape:collect="always"><stop
         style="stop-color:#313132;stop-opacity:1;"
         offset="0.32038835"
         id="stop54" /><stop
         style="stop-color:#313132;stop-opacity:0;"
         offset="1"
         id="stop55" /></linearGradient><radialGradient
       inkscape:collect="always"
       xlink:href="#linearGradient54"
       id="radialGradient55"
       cx="104.88563"
       cy="31.767023"
       fx="104.88563"
       fy="31.767023"
       r="24.261547"
       gradientTransform="matrix(1,0,0,0.05180094,0.21497396,30.154535)"
       gradientUnits="userSpaceOnUse" /><radialGradient
       inkscape:collect="always"
       xlink:href="#linearGradient55"
       id="radialGradient57"
       cx="104.41886"
       cy="31.571213"
       fx="104.41886"
       fy="31.571213"
       r="6.5948753"
       gradientTransform="matrix(1.4337925,0,0,0.17553192,-44.8014,26.19531)"
       gradientUnits="userSpaceOnUse" /><radialGradient
       inkscape:collect="always"
       xlink:href="#linearGradient55"
       id="radialGradient57-5"
       cx="104.41886"
       cy="31.571213"
       fx="104.41886"
       fy="31.571213"
       r="6.5948753"
       gradientTransform="matrix(1.4337925,0,0,0.17553192,-55.664255,26.241382)"
       gradientUnits="userSpaceOnUse" /><radialGradient
       inkscape:collect="always"
       xlink:href="#linearGradient55"
       id="radialGradient57-5-7"
       cx="104.41886"
       cy="31.571213"
       fx="104.41886"
       fy="31.571213"
       r="6.5948753"
       gradientTransform="matrix(1.4337925,0,0,0.17553192,-33.997263,26.241382)"
       gradientUnits="userSpaceOnUse" /></defs><g
     inkscape:label="Layer 1"
     inkscape:groupmode="layer"
     id="layer1"><ellipse
       style="fill:url(#radialGradient57-5);stroke-width:0.557246"
       id="path55-1"
       cx="94.050682"
       cy="31.783133"
       rx="9.4556828"
       ry="1.1576111" /><ellipse
       style="fill:url(#radialGradient57-5-7);stroke-width:0.557246"
       id="path55-1-2"
       cx="115.71768"
       cy="31.783133"
       rx="9.4556828"
       ry="1.1576111" /><path
       id="path23"
       style="fill:#8e8178;fill-opacity:1;stroke-width:0.297296"
       d="M 97.139807 40.200647 L 96.74965 40.397017 L 95.792603 41.5401 L 95.185404 43.135868 L 94.72135 46.363578 L 95.996208 46.554264 L 95.806038 46.781641 L 95.19884 48.377409 L 94.734786 51.605119 L 96.079924 51.80614 L 95.772965 52.172526 L 95.165767 53.768294 L 94.701713 56.996004 L 98.383142 57.546358 L 99.323136 51.008256 L 98.596566 50.899736 L 99.356209 45.617371 L 98.605351 45.505233 L 99.342773 40.37583 L 98.170235 40.200647 L 97.139807 40.200647 z " /><path
       id="rect3"
       style="fill:#8e8178;fill-opacity:1;stroke-width:0.297296"
       d="M 111.68 40.200647 L 110.50747 40.37583 L 111.24489 45.505233 L 110.49403 45.617371 L 111.25367 50.899736 L 110.5271 51.008256 L 111.4671 57.546358 L 115.14853 56.996004 L 114.68447 53.768294 L 114.07727 52.172526 L 113.77032 51.80614 L 115.11545 51.605119 L 114.6514 48.377409 L 114.0442 46.781641 L 113.85403 46.554264 L 115.12889 46.363578 L 114.66484 43.135868 L 114.05764 41.5401 L 113.10059 40.397017 L 112.71043 40.200647 L 111.68 40.200647 z " /><path
       id="rect1"
       style="fill:#817358;fill-opacity:1;stroke-width:0.410646"
       d="M 100.33961 34.527091 L 98.879753 37.215816 L 98.234314 40.826449 L 98.021407 40.788208 L 98.021407 60.198393 L 67.047587 60.198393 L 37.997681 61.955391 L 27.086202 63.25402 L 19.744531 64.850822 L 11.847339 67.512675 L 7.6739502 70.959493 L 6.9065552 73.120085 L 7.1339315 75.523039 L 11.625647 81.448258 L 23.844539 89.063814 L 32.136023 92.502364 L 42.520919 95.872184 L 67.765373 100.968 L 92.607784 103.46914 L 92.612952 103.46345 L 94.74047 105.26283 L 94.742021 105.26231 L 96.851453 111.01235 L 98.021407 113.74396 L 98.021407 117.0466 L 98.769682 131.87205 L 101.57313 161.83147 L 96.545528 161.83147 L 86.041777 164.48092 L 79.935173 168.04349 L 76.037736 172.91916 L 75.400049 175.99288 L 75.400049 177.18453 L 76.638733 179.97868 L 79.192065 182.31497 L 83.267269 183.63789 L 97.679826 184.70345 L 100.01405 184.70345 L 103.31256 180.42051 L 104.21844 190.10312 L 104.73004 190.10312 L 105.1202 190.10312 L 105.6318 190.10312 L 106.53768 180.42051 L 109.83619 184.70345 L 112.17041 184.70345 L 126.58297 183.63789 L 130.65817 182.31497 L 133.21151 179.97868 L 134.45019 177.18453 L 134.45019 175.99288 L 133.8125 172.91916 L 129.91507 168.04349 L 123.80846 164.48092 L 113.30471 161.83147 L 108.27711 161.83147 L 111.08056 131.87205 L 111.82883 117.0466 L 111.82883 113.83181 L 112.93884 111.24024 L 115.04827 105.4902 L 115.05034 105.49072 L 117.17786 103.69135 L 117.18303 103.69755 L 142.02544 101.19641 L 167.26989 96.100594 L 177.65479 92.730774 L 185.94627 89.292224 L 198.16517 81.676668 L 202.65688 75.751449 L 202.88426 73.348494 L 202.11686 71.187903 L 197.94347 67.741085 L 190.04628 65.079232 L 182.70461 63.48243 L 171.79313 62.183801 L 142.74323 60.426803 L 111.82883 60.426286 L 111.82883 40.788208 L 111.61593 40.826449 L 110.97049 37.215816 L 109.51063 34.527091 L 105.1202 34.527091 L 104.73004 34.527091 L 100.33961 34.527091 z " /><path
       id="rect2-5"
       style="fill:#6c6d5b;fill-opacity:1;stroke-width:0.426141"
       d="M 100.33961 34.527091 L 98.879753 37.215816 L 98.234314 40.826449 L 98.021407 40.788208 L 98.021407 53.445833 L 105.12072 53.445833 L 105.12072 45.812708 L 111.82883 43.757536 L 111.82883 40.788208 L 111.61593 40.826449 L 110.97049 37.215816 L 109.51063 34.527091 L 105.1202 34.527091 L 104.73004 34.527091 L 100.33961 34.527091 z M 67.047587 60.198393 L 66.859485 60.209762 L 66.859485 73.18468 L 66.858968 73.18468 L 66.858968 73.440479 L 54.11401 73.440479 L 54.11401 67.640316 L 52.472766 61.079993 L 37.997681 61.955391 L 27.086202 63.25402 L 19.744531 64.850822 L 12.782166 67.197449 L 31.459062 78.187476 L 33.441886 74.817655 L 36.532137 87.16884 L 43.918766 85.32089 L 39.700419 94.956995 L 42.520919 95.872184 L 62.70625 99.946871 L 67.765373 100.968 L 68.361719 101.02794 L 88.507259 90.768103 L 91.485372 83.965417 L 88.293835 82.568087 L 88.293835 60.198393 L 67.047587 60.198393 z M 111.84485 60.428353 L 111.84485 69.72546 L 104.69077 75.303414 L 99.483333 75.303414 L 99.483333 98.491146 L 97.503609 98.491146 L 89.92216 103.19887 L 92.607784 103.46914 L 92.612952 103.46345 L 94.74047 105.26283 L 94.742021 105.26231 L 96.851453 111.01235 L 98.021407 113.74396 L 98.021407 114.83123 L 110.76068 106.92112 L 112.5151 106.92112 L 112.5151 96.550179 L 129.20555 83.53702 L 133.2792 83.53702 L 133.2792 60.428353 L 111.84485 60.428353 z M 174.62087 62.543469 L 181.97391 90.979976 L 185.97883 89.319096 L 198.19772 81.70354 L 202.68944 75.77832 L 202.91681 73.375366 L 202.14942 71.214775 L 197.97603 67.767957 L 190.07884 65.106104 L 182.73717 63.509302 L 174.62087 62.543469 z M 11.338326 67.933321 L 7.6739502 70.959493 L 6.9065552 73.120085 L 7.1339315 75.523039 L 11.625647 81.448258 L 23.844539 89.063814 L 25.385014 89.702535 L 11.338326 67.933321 z M 159.01407 77.66141 L 131.61677 102.2103 L 142.26108 101.13853 L 167.50554 96.042716 L 173.69431 94.03457 L 173.69431 84.366427 L 165.02197 84.366427 L 159.01407 77.66141 z M 111.22629 128.98489 L 99.188778 136.3524 L 101.57313 161.83147 L 96.545528 161.83147 L 90.624959 163.32491 L 87.973442 183.98567 L 97.679826 184.70345 L 100.01405 184.70345 L 103.31256 180.42051 L 103.90632 186.76741 L 107.00277 162.6433 L 108.32931 161.83147 L 108.27711 161.83147 L 111.08056 131.87205 L 111.22629 128.98489 z M 118.08116 163.03656 L 121.66182 172.23652 L 116.36964 173.64883 L 119.18084 184.18514 L 126.58297 183.63789 L 130.65817 182.31497 L 133.21151 179.97868 L 134.45019 177.18453 L 134.45019 175.99288 L 133.8125 172.91916 L 129.91507 168.04349 L 123.80846 164.48092 L 118.08116 163.03656 z " /><ellipse
       style="fill:#363b51;fill-opacity:1;stroke-width:0.333245"
       id="path3"
       cx="170.45996"
       cy="74.779289"
       rx="12.080139"
       ry="11.996828" /><circle
       style="fill:#aa463e;fill-opacity:1;stroke-width:0.264583"
       id="path4"
       cx="170.47237"
       cy="74.695175"
       r="5.1428385" /><path
       id="rect5"
       style="fill:#303135;fill-opacity:1;stroke-width:0.264583"
       d="M 104.73004 28.459245 L 104.73004 28.482499 L 104.32231 28.566215 L 103.50014 29.116052 L 102.88209 29.84469 L 100.31894 34.564815 L 104.73004 34.564815 L 105.1202 34.564815 L 109.5313 34.564815 L 106.96815 29.84469 L 106.3501 29.116052 L 105.52793 28.566215 L 105.1202 28.482499 L 105.1202 28.459245 L 105.00651 28.459245 L 104.84373 28.459245 L 104.73004 28.459245 z " /><g
       id="g51"><path
         id="path1"
         style="fill:#e0ae29;fill-opacity:1;stroke-width:0.268502"
         d="m 111.82879,113.12023 a 6.432682,10.490478 0 0 0 -6.14432,10.45931 6.432682,10.490478 0 0 0 5.21053,10.27689 l 0.18552,-1.98438 0.74827,-14.82545 z" /><path
         id="path2"
         style="fill:#3d4453;fill-opacity:1;stroke-width:0.305244"
         d="m 111.35647,115.6441 a 3.8236246,8.1032782 0 0 0 -3.82354,8.10339 3.8236246,8.1032782 0 0 0 3.55069,8.06565 l 0.74517,-14.76654 v -1.33945 a 3.8236246,8.1032782 0 0 0 -0.47232,-0.0631 z" /><path
         id="path5"
         style="fill:#d4d6cf;fill-opacity:1;stroke-width:0.273544"
         d="m 111.14615,118.94158 a 2.256757,4.899384 0 0 0 -2.25671,4.89944 2.256757,4.899384 0 0 0 2.25671,4.89944 2.256757,4.899384 0 0 0 0.093,-0.0134 l 0.48576,-9.62112 a 2.256757,4.899384 0 0 0 -0.57877,-0.16433 z" /><path
         id="path6"
         style="fill:#ae5757;fill-opacity:1;stroke-width:0.264583"
         d="m 111.4035,122.08712 a 0.64311731,1.7773423 0 0 0 -0.64338,1.77715 0.64311731,1.7773423 0 0 0 0.63511,1.77612 l 0.17621,-3.49126 a 0.64311731,1.7773423 0 0 0 -0.16794,-0.062 z" /><path
         id="path33"
         style="fill:#e0ae29;fill-opacity:1;stroke-width:0.268502"
         d="m 98.02136,113.12023 a 6.432682,10.490478 0 0 1 6.14432,10.45931 6.432682,10.490478 0 0 1 -5.21053,10.27689 l -0.18552,-1.98438 -0.74827,-14.82545 z" /><path
         id="path34"
         style="fill:#3d4453;fill-opacity:1;stroke-width:0.305244"
         d="m 98.49368,115.6441 a 3.8236246,8.1032782 0 0 1 3.82354,8.10339 3.8236246,8.1032782 0 0 1 -3.55069,8.06565 L 98.02136,117.0466 v -1.33945 a 3.8236246,8.1032782 0 0 1 0.47232,-0.0631 z" /><path
         id="path35"
         style="fill:#d4d6cf;fill-opacity:1;stroke-width:0.273544"
         d="m 98.704,118.94158 a 2.256757,4.899384 0 0 1 2.25671,4.89944 2.256757,4.899384 0 0 1 -2.25671,4.89944 2.256757,4.899384 0 0 1 -0.093,-0.0134 l -0.48576,-9.62112 a 2.256757,4.899384 0 0 1 0.57877,-0.16433 z" /><path
         id="path36"
         style="fill:#ae5757;fill-opacity:1;stroke-width:0.264583"
         d="m 98.44665,122.08712 a 0.64311731,1.7773423 0 0 1 0.64338,1.77715 0.64311731,1.7773423 0 0 1 -0.63511,1.77612 l -0.17621,-3.49126 a 0.64311731,1.7773423 0 0 1 0.16794,-0.062 z" /></g><ellipse
       style="fill:#363b51;fill-opacity:1;stroke-width:0.333245"
       id="path3-2"
       cx="-39.330654"
       cy="74.551208"
       rx="12.080139"
       ry="11.996828"
       transform="scale(-1,1)" /><circle
       style="fill:#aa463e;fill-opacity:1;stroke-width:0.264583"
       id="path4-7"
       cx="-39.318249"
       cy="74.467094"
       transform="scale(-1,1)"
       r="5.1428385" /><path
       id="rect9"
       style="fill:#38372d;fill-opacity:1;stroke-width:0.372138"
       d="M 102.95496 81.641012 L 102.95496 82.419775 L 103.87325 85.628365 L 104.63031 85.628365 L 105.21993 85.628365 L 105.97699 85.628365 L 106.89528 82.419775 L 106.89528 81.641012 L 105.21993 81.641012 L 104.63031 81.641012 L 102.95496 81.641012 z M 102.00618 83.044543 L 101.2238 83.858964 L 100.54735 85.433545 L 100.54735 88.349646 L 103.01955 86.452604 L 102.00618 83.044543 z M 107.84406 83.044543 L 106.83069 86.452604 L 109.30289 88.349646 L 109.30289 85.433545 L 108.62644 83.858964 L 107.84406 83.044543 z M 102.87692 87.394149 L 100.49878 89.21936 L 100.49878 99.077673 L 103.6097 98.335083 L 103.6097 98.332499 L 104.63031 98.332499 L 105.21993 98.332499 L 106.24054 98.332499 L 106.24054 98.335083 L 109.35146 99.077673 L 109.35146 89.21936 L 106.97332 87.394149 L 105.21993 87.394149 L 104.63031 87.394149 L 102.87692 87.394149 z M 103.80452 99.110229 L 100.51014 99.872457 L 101.10907 105.70518 L 104.63031 105.70518 L 105.21993 105.70518 L 108.74117 105.70518 L 109.3401 99.872457 L 106.04572 99.110229 L 105.21993 99.110229 L 104.63031 99.110229 L 103.80452 99.110229 z " /><ellipse
       style="fill:url(#radialGradient55);stroke-width:0.611511"
       id="path51"
       cx="105.1006"
       cy="31.800097"
       rx="24.261547"
       ry="1.2567708" /><ellipse
       style="fill:url(#radialGradient57);stroke-width:0.557246"
       id="path55"
       cx="104.91359"
       cy="31.737061"
       rx="9.4556828"
       ry="1.1576111" /></g></svg>
