<?xml version="1.0" encoding="UTF-8" standalone="no"?>
<!-- Created with Inkscape (http://www.inkscape.org/) -->

<svg
   width="33.866665mm"
   height="33.866669mm"
   viewBox="0 0 33.866665 33.866669"
   version="1.1"
   id="svg1"
   xml:space="preserve"
   inkscape:export-filename="bitmap.png"
   inkscape:export-xdpi="96.761902"
   inkscape:export-ydpi="96.761902"
   xmlns:inkscape="http://www.inkscape.org/namespaces/inkscape"
   xmlns:sodipodi="http://sodipodi.sourceforge.net/DTD/sodipodi-0.dtd"
   xmlns="http://www.w3.org/2000/svg"
   xmlns:svg="http://www.w3.org/2000/svg"><sodipodi:namedview
     id="namedview1"
     pagecolor="#ffffff"
     bordercolor="#666666"
     borderopacity="1.0"
     inkscape:showpageshadow="2"
     inkscape:pageopacity="0.0"
     inkscape:pagecheckerboard="0"
     inkscape:deskcolor="#d1d1d1"
     inkscape:document-units="mm"
     inkscape:export-bgcolor="#ffffff00"><inkscape:page
       x="0"
       y="0"
       width="33.866665"
       height="33.866669"
       id="page2"
       margin="0"
       bleed="0" /></sodipodi:namedview><defs
     id="defs1" /><g
     inkscape:label="Layer 1"
     inkscape:groupmode="layer"
     id="layer1"
     transform="translate(-88.106246,-131.49793)"><g
       id="g1"
       transform="matrix(0.26458333,0,0,0.26458333,88.10625,131.49792)"><rect
         width="124"
         height="124"
         x="2"
         y="2"
         fill="#363d52"
         stroke="#212532"
         stroke-width="4"
         rx="14"
         id="rect1" /><g
         fill="#ffffff"
         transform="matrix(0.101,0,0,0.101,12.322,12.322)"
         id="g4"><path
           d="m 105,673 v 33 q 407,354 814,0 v -33 z"
           id="path1" /><path
           fill="#478cbf"
           d="m 105,673 152,14 q 12,1 15,14 l 4,67 132,10 8,-61 q 2,-11 15,-15 h 162 q 13,4 15,15 l 8,61 132,-10 4,-67 q 3,-13 15,-14 L 919,673 V 427 q 30,-39 56,-81 -35,-59 -83,-108 -43,20 -82,47 -40,-37 -88,-64 7,-51 8,-102 -59,-28 -123,-42 -26,43 -46,89 -49,-7 -98,0 -20,-46 -46,-89 -64,14 -123,42 1,51 8,102 -48,27 -88,64 -39,-27 -82,-47 -48,49 -83,108 26,42 56,81 z m 0,33 v 39 c 0,276 813,276 814,0 v -39 l -134,12 -5,69 q -2,10 -14,13 l -162,11 q -12,0 -16,-11 L 578,735 H 446 l -10,65 q -4,11 -16,11 L 258,800 q -12,-3 -14,-13 l -5,-69 z"
           id="path2" /><path
           d="m 483,600 c 0,34 58,34 58,0 v -86 c 0,-34 -58,-34 -58,0 z"
           id="path3" /><circle
           cx="725"
           cy="526"
           r="90"
           id="circle3" /><circle
           cx="299"
           cy="526"
           r="90"
           id="circle4" /></g><g
         fill="#414042"
         transform="matrix(0.101,0,0,0.101,12.322,12.322)"
         id="g6"><circle
           cx="307"
           cy="532"
           r="60"
           id="circle5" /><circle
           cx="717"
           cy="532"
           r="60"
           id="circle6" /></g></g><path
       style="fill:#2b0000;stroke-width:0.688662"
       d="m 345.649,620.17974 c -2.99447,-0.92222 -5.11799,-2.65482 -6.69684,-5.46401 l -1.50759,-2.6824 v -51.28191 -51.2819 l 1.56588,-2.32361 c 2.23858,-3.32183 5.5358,-5.29977 9.65963,-5.79462 1.9694,-0.23632 25.11865,-0.33414 51.44277,-0.21738 42.99181,0.1907 48.07226,0.32828 49.92802,1.35203 2.67688,1.47674 4.8865,3.87676 5.80776,6.30823 0.4959,1.30882 0.73453,18.29779 0.73453,52.29308 0,48.82959 -0.0414,50.43921 -1.3671,53.15434 -0.75191,1.53994 -2.51092,3.57465 -3.90891,4.52156 l -2.54181,1.72166 -50.66758,0.12175 c -27.86717,0.067 -51.46912,-0.12511 -52.44876,-0.42682 z m 70.03699,-16.48708 c 10.83859,-2.69959 18.09997,-7.06983 21.1145,-12.70768 1.45288,-2.71724 1.54438,-3.80064 1.74836,-20.70158 l 0.21524,-17.83428 2.78133,-4.09568 2.78132,-4.09568 -2.48863,-3.55055 c -3.33422,-4.75696 -5.67647,-7.33819 -6.65879,-7.33819 -0.44552,0 -2.48117,0.95613 -4.52368,2.12473 l -3.71364,2.12474 -2.48075,-2.17813 c -1.36441,-1.19796 -3.23365,-2.52116 -4.15388,-2.94045 -1.62349,-0.73971 -1.65951,-0.91848 -1.21398,-6.02596 l 0.45915,-5.26364 -3.34972,-1.43157 c -4.21098,-1.79965 -9.05851,-3.10842 -9.80482,-2.64718 -0.31332,0.19365 -1.44132,2.18742 -2.50665,4.43061 l -1.93696,4.07852 -4.88058,-0.0318 -4.88058,-0.0318 -2.15691,-4.1958 c -1.99723,-3.88518 -2.31579,-4.18287 -4.30309,-4.02116 -1.18039,0.0961 -4.19687,0.9956 -6.70328,1.99898 l -4.55711,1.82434 0.46032,5.27709 c 0.44681,5.12217 0.41121,5.29946 -1.21281,6.03941 -0.92022,0.41929 -2.78198,1.73592 -4.13725,2.92586 l -2.46412,2.16352 -4.11854,-2.28151 -4.11855,-2.28152 -2.12471,2.03561 c -1.16859,1.11958 -3.24343,3.65993 -4.61076,5.64523 l -2.48605,3.60964 2.67254,3.65091 2.67255,3.65092 0.34433,18.306 0.34433,18.30599 2.07969,3.38687 c 3.78531,6.16452 12.38948,10.62918 25.15944,13.05508 7.4022,1.4062 25.32586,0.86998 32.75274,-0.97985 z"
       id="path6"
       transform="scale(0.26458333)" /><path
       style="fill:#d40000;stroke-width:0.688662"
       d="m 381.51896,587.30209 c -2.0832,-0.11905 -4.79481,-0.38567 -6.0258,-0.59247 -2.16444,-0.36362 -2.23815,-0.48561 -2.23815,-3.70379 0,-1.83151 -0.38705,-3.64108 -0.86083,-4.02456 -0.47345,-0.38322 -3.80486,-0.90817 -7.40312,-1.16656 -9.93724,-0.71358 -8.95261,0.76807 -8.95261,-13.47171 v -12.31894 l -2.73171,-3.89965 -2.73171,-3.89964 1.98726,-2.84539 c 1.09299,-1.56497 2.92107,-3.93004 4.06239,-5.25571 l 2.07513,-2.41032 2.2848,1.26994 c 1.25664,0.69847 3.08053,1.73909 4.05309,2.31248 1.70008,1.00233 1.94712,0.9135 6.40463,-2.30294 l 4.63633,-3.34547 -0.45371,-4.9285 c -0.40235,-4.37053 -0.3088,-5.00574 0.82633,-5.61082 2.41106,-1.28522 10.05263,-3.55799 10.67322,-3.17445 0.34105,0.21078 1.5065,2.13622 2.58989,4.27875 l 1.9698,3.89551 5.32102,0.0508 5.32103,0.0509 2.14999,-4.35997 c 2.0651,-4.18779 2.23215,-4.34235 4.23044,-3.91402 1.14424,0.24527 3.78488,1.13019 5.86809,1.96648 l 3.78764,1.52054 v 5.20554 5.20553 l 4.40292,3.2493 4.40291,3.24929 2.82804,-1.57041 c 1.55542,-0.86372 3.39488,-1.90298 4.08769,-2.30945 1.0462,-0.6138 1.60998,-0.33059 3.32694,1.67129 1.137,1.32567 2.96155,3.69074 4.05454,5.25571 l 1.98726,2.84539 -2.73171,3.89964 -2.73171,3.89965 V 564.343 c 0,14.23978 0.98462,12.75813 -8.95261,13.47171 -3.59827,0.25839 -6.92967,0.78334 -7.40313,1.16656 -0.47377,0.38348 -0.86082,2.19305 -0.86082,4.02456 0,3.76048 0.17517,3.67331 -8.66728,4.31314 l -4.19096,0.30324 -0.62967,-3.53991 -0.62967,-3.53991 h -9.64128 -9.64127 l -0.61335,3.61548 c -0.33735,1.98851 -0.80219,3.55815 -1.033,3.48809 -0.2308,-0.0701 -2.12408,-0.2248 -4.20728,-0.34387 z m 17.50457,-15.09733 c 0.87987,-0.33764 1.08932,-1.5909 1.08932,-6.51806 0,-5.51619 -0.14017,-6.17507 -1.46444,-6.8838 -1.06302,-0.56891 -1.91248,-0.5796 -3.09898,-0.039 -1.54282,0.70296 -1.63455,1.09016 -1.63455,6.90009 0,4.2799 0.26228,6.26116 0.86083,6.50268 1.24601,0.50278 2.99596,0.51846 4.24782,0.0381 z m -19.04777,-1.64425 c 8.6376,-5.26641 5.23307,-17.20992 -4.90795,-17.21771 -4.9101,-0.004 -8.70062,3.78675 -8.69685,8.69685 0.006,7.74441 7.34221,12.33921 13.6048,8.52086 z m 42.52565,0.38205 c 3.08477,-1.2889 5.15206,-4.71483 5.15535,-8.54347 0.005,-5.51169 -3.5446,-9.06103 -9.05628,-9.05629 -9.79948,0.008 -12.98663,12.07292 -4.54852,17.21771 2.66092,1.62237 5.20556,1.73743 8.44945,0.38205 z"
       id="path7"
       transform="scale(0.26458333)" /><path
       style="fill:#d40000;stroke-width:0.688662"
       d="m 385.99527,604.54564 c -19.34186,-3.02301 -29.93457,-10.60675 -29.95298,-21.44449 l -0.004,-2.26187 3.61548,0.39784 c 1.98851,0.21881 4.88416,0.55112 6.43476,0.73845 l 2.81929,0.34062 0.62403,3.93374 0.62402,3.93373 5.16497,0.52954 c 2.84073,0.29125 7.1793,0.4462 9.64127,0.34433 l 4.47631,-0.1852 0.61335,-3.61548 0.61335,-3.61548 h 6.34858 6.34859 l 0.61335,3.61548 0.61335,3.61548 9.24401,-0.15367 c 5.08421,-0.0845 9.50849,-0.41815 9.83174,-0.7414 0.32325,-0.32325 0.7761,-2.17822 1.00633,-4.12216 l 0.4186,-3.53443 2.83425,-0.34285 c 1.55883,-0.18857 4.46121,-0.52189 6.44972,-0.7407 l 3.61548,-0.39784 -0.004,2.26187 c -0.0156,9.21086 -7.90013,16.30486 -22.07637,19.86302 -4.40514,1.10567 -8.47579,1.51237 -16.82921,1.68141 -6.06023,0.12263 -11.94829,0.0777 -13.08458,-0.0999 z"
       id="path8"
       transform="scale(0.26458333)" /><rect
       style="fill:#1a1a1a;stroke-width:0.0594334"
       id="rect8"
       width="7.8002005"
       height="0.89129645"
       x="198.59784"
       y="79.994675"
       transform="matrix(0.84591957,0.53331049,-0.88758804,0.46063812,0,0)" /><rect
       style="fill:#1a1a1a;stroke-width:0.0594334"
       id="rect8-6"
       width="7.8002005"
       height="0.89129645"
       x="83.935936"
       y="209.82886"
       transform="matrix(-0.85295891,0.52197806,0.88136392,0.47243798,0,0)" /></g></svg>
