<?xml version="1.0" encoding="UTF-8" standalone="no"?>
<!-- Created with Inkscape (http://www.inkscape.org/) -->

<svg
   width="360mm"
   height="210mm"
   viewBox="0 0 360 210"
   version="1.1"
   id="svg1"
   xml:space="preserve"
   inkscape:version="1.4 (86a8ad7, 2024-10-11)"
   sodipodi:docname="Trails_of_Glory_logo.svg"
   xmlns:inkscape="http://www.inkscape.org/namespaces/inkscape"
   xmlns:sodipodi="http://sodipodi.sourceforge.net/DTD/sodipodi-0.dtd"
   xmlns:xlink="http://www.w3.org/1999/xlink"
   xmlns="http://www.w3.org/2000/svg"
   xmlns:svg="http://www.w3.org/2000/svg"><sodipodi:namedview
     id="namedview1"
     pagecolor="#ffffff"
     bordercolor="#000000"
     borderopacity="0.25"
     inkscape:showpageshadow="2"
     inkscape:pageopacity="0.0"
     inkscape:pagecheckerboard="0"
     inkscape:deskcolor="#d1d1d1"
     inkscape:document-units="mm"
     inkscape:zoom="7.8312672"
     inkscape:cx="537.90784"
     inkscape:cy="306.65535"
     inkscape:window-width="1920"
     inkscape:window-height="1017"
     inkscape:window-x="-8"
     inkscape:window-y="-8"
     inkscape:window-maximized="1"
     inkscape:current-layer="layer1" /><defs
     id="defs1"><linearGradient
       id="linearGradient5"
       inkscape:collect="always"><stop
         style="stop-color:#ffffff;stop-opacity:0.67924529;"
         offset="0"
         id="stop4" /><stop
         style="stop-color:#ffffff;stop-opacity:0;"
         offset="0.5"
         id="stop5" /></linearGradient><linearGradient
       id="linearGradient84"
       inkscape:collect="always"><stop
         style="stop-color:#ffffff;stop-opacity:1;"
         offset="0"
         id="stop83" /><stop
         style="stop-color:#ffffff;stop-opacity:0;"
         offset="1"
         id="stop84" /></linearGradient><linearGradient
       id="linearGradient82"
       inkscape:collect="always"><stop
         style="stop-color:#ffffff;stop-opacity:1;"
         offset="0"
         id="stop81" /><stop
         style="stop-color:#ffffff;stop-opacity:0;"
         offset="0.47505939"
         id="stop82" /></linearGradient><linearGradient
       id="linearGradient79"
       inkscape:collect="always"><stop
         style="stop-color:#ffffff;stop-opacity:1;"
         offset="0"
         id="stop79" /><stop
         style="stop-color:#000000;stop-opacity:0;"
         offset="1"
         id="stop80" /></linearGradient><rect
       x="1123.7007"
       y="152.72113"
       width="119.52089"
       height="133.31176"
       id="rect25" /><rect
       x="1061.3863"
       y="215.03544"
       width="121.56398"
       height="161.91505"
       id="rect24" /><rect
       x="1012.3521"
       y="195.62607"
       width="71.508224"
       height="129.22558"
       id="rect23" /><rect
       x="999.72152"
       y="188.5313"
       width="111.24069"
       height="123.52051"
       id="rect22" /><rect
       x="779.43964"
       y="117.4778"
       width="356.51957"
       height="378.99358"
       id="rect19" /><rect
       x="718.73043"
       y="205.14517"
       width="180.58554"
       height="122.79816"
       id="rect18" /><rect
       x="619.05691"
       y="214.52467"
       width="74.572862"
       height="109.30543"
       id="rect17" /><rect
       x="574.262"
       y="182.03022"
       width="145.19077"
       height="141.57906"
       id="rect16" /><rect
       x="490.3421"
       y="256.40806"
       width="158.33964"
       height="111.34852"
       id="rect14" /><rect
       x="377.20588"
       y="202.5215"
       width="88.363733"
       height="73.040543"
       id="rect12" /><rect
       x="376.34026"
       y="221.39787"
       width="83.069346"
       height="107.26781"
       id="rect11" /><rect
       x="314.63618"
       y="457.65263"
       width="782.50427"
       height="234.95559"
       id="rect8" /><rect
       x="382.11899"
       y="228.98246"
       width="119.18645"
       height="101.85024"
       id="rect7" /><rect
       x="264.37722"
       y="424.73718"
       width="679.00161"
       height="239.81759"
       id="rect6" /><rect
       x="230.86941"
       y="396.35987"
       width="870.35723"
       height="239.04178"
       id="rect2" /><rect
       x="377.20588"
       y="202.5215"
       width="88.363733"
       height="73.040543"
       id="rect13" /><rect
       x="574.262"
       y="182.03022"
       width="145.19077"
       height="141.57906"
       id="rect20" /><rect
       x="574.262"
       y="182.03022"
       width="145.19077"
       height="141.57906"
       id="rect21" /><rect
       x="718.73043"
       y="205.14517"
       width="180.58554"
       height="122.79816"
       id="rect26" /><rect
       x="574.262"
       y="182.03022"
       width="145.19077"
       height="141.57906"
       id="rect27" /><rect
       x="718.73043"
       y="205.14517"
       width="180.58554"
       height="122.79816"
       id="rect28" /><rect
       x="718.73043"
       y="205.14517"
       width="180.58554"
       height="122.79816"
       id="rect29" /><rect
       x="718.73043"
       y="205.14517"
       width="180.58554"
       height="122.79816"
       id="rect30" /><rect
       x="574.262"
       y="182.03022"
       width="145.19077"
       height="141.57906"
       id="rect33" /><rect
       x="574.262"
       y="182.03022"
       width="145.19077"
       height="141.57906"
       id="rect34" /><rect
       x="574.262"
       y="182.03022"
       width="145.19077"
       height="141.57906"
       id="rect50" /><rect
       x="619.05691"
       y="214.52467"
       width="74.572862"
       height="109.30543"
       id="rect51" /><rect
       x="574.262"
       y="182.03022"
       width="145.19077"
       height="141.57906"
       id="rect52" /><linearGradient
       inkscape:collect="always"
       xlink:href="#linearGradient79"
       id="linearGradient80"
       x1="64.298317"
       y1="-70.33831"
       x2="295.70218"
       y2="205.43806"
       gradientUnits="userSpaceOnUse" /><radialGradient
       inkscape:collect="always"
       xlink:href="#linearGradient82"
       id="radialGradient81"
       cx="-16.757801"
       cy="-143.24579"
       fx="-16.757801"
       fy="-143.24579"
       r="180.00012"
       gradientTransform="matrix(1,0,0,0.21241583,0,53.201219)"
       gradientUnits="userSpaceOnUse" /><radialGradient
       inkscape:collect="always"
       xlink:href="#linearGradient84"
       id="radialGradient82"
       gradientUnits="userSpaceOnUse"
       gradientTransform="matrix(1.5499997,0.0127413,-4.7179556e-4,0.05739467,-66.469782,25.829175)"
       cx="132.73666"
       cy="-48.835194"
       fx="132.73666"
       fy="-48.835194"
       r="180.00012" /><linearGradient
       inkscape:collect="always"
       xlink:href="#linearGradient5"
       id="linearGradient4"
       gradientUnits="userSpaceOnUse"
       x1="360.00052"
       y1="67.549881"
       x2="4.3316281e-06"
       y2="67.549881"
       gradientTransform="translate(-4.8290018e-4,-0.00463931)" /></defs><g
     inkscape:label="圖層 1"
     inkscape:groupmode="layer"
     id="layer1"><path
       id="path57"
       style="fill:#1a1a1a;fill-opacity:1;stroke-width:2.49752"
       d="m 51.957316,55.458391 12.438192,31.43874 h 75.358542 80.48485 59.72175 l -7.79936,19.811699 h 15.59665 l 7.83794,-19.811699 h 0.002 l 12.43775,-31.43874 H 220.2389 139.75405 Z" /><path
       id="path3"
       style="fill:url(#linearGradient80);fill-opacity:1;stroke-width:2.50572"
       d="M 0 29.315007 L 17.485754 60.836597 L 26.195817 60.836597 L 32.648136 74.247664 L 59.32041 74.247664 L 63.944417 85.920854 L 139.59923 85.920854 L 220.4005 85.920854 L 280.35705 85.920854 L 272.52703 105.78476 L 288.18499 105.78476 L 296.05376 85.920854 L 296.05583 85.920854 L 300.67984 74.247664 L 314.54979 74.247664 L 321.00211 60.836597 L 342.51449 60.836597 L 360.00025 29.315007 L 236.57367 29.315007 L 123.42606 29.315007 L 0 29.315007 z " /><path
       id="path39"
       style="fill:#8a8a8a;fill-opacity:1;stroke-width:2.50572"
       d="M 51.457324 54.399264 L 63.944417 85.920854 L 139.59923 85.920854 L 220.4005 85.920854 L 280.35705 85.920854 L 272.52703 105.78476 L 288.18499 105.78476 L 296.05376 85.920854 L 296.05583 85.920854 L 308.54241 54.399264 L 220.4005 54.399264 L 139.59923 54.399264 L 51.457324 54.399264 z " /><path
       id="path2"
       style="fill:#8a8a8a;fill-opacity:1;stroke-width:2.76143"
       d="m 17.482649,42.726324 15.16543,31.521471 h 91.883881 98.13424 91.88385 L 329.71549,42.726324 H 222.6662 124.53196 Z" /><path
       id="rect1"
       style="fill:#8a8a8a;fill-opacity:1;stroke-width:2.96514"
       d="M 360,29.315112 342.51447,60.836583 H 236.5737 123.42628 17.485511 L 8.9999997e-7,29.315112 H 123.42628 236.5737 Z" /><path
       id="path81"
       style="fill:url(#radialGradient81);fill-opacity:1;stroke-width:2.50572"
       d="M 0 29.315007 L 17.485754 60.836597 L 26.195817 60.836597 L 32.648136 74.247664 L 59.32041 74.247664 L 63.944417 85.920854 L 139.59923 85.920854 L 220.4005 85.920854 L 280.35705 85.920854 L 272.52703 105.78476 L 288.18499 105.78476 L 296.05376 85.920854 L 296.05583 85.920854 L 300.67984 74.247664 L 314.54979 74.247664 L 321.00211 60.836597 L 342.51449 60.836597 L 360.00025 29.315007 L 236.57367 29.315007 L 123.42606 29.315007 L 0 29.315007 z " /><path
       id="path82"
       style="fill:url(#radialGradient82);fill-opacity:1;stroke-width:2.50572"
       d="M 0 29.315007 L 17.485754 60.836597 L 26.195817 60.836597 L 32.648136 74.247664 L 59.32041 74.247664 L 63.944417 85.920854 L 139.59923 85.920854 L 220.4005 85.920854 L 280.35705 85.920854 L 272.52703 105.78476 L 288.18499 105.78476 L 296.05376 85.920854 L 296.05583 85.920854 L 300.67984 74.247664 L 314.54979 74.247664 L 321.00211 60.836597 L 342.51449 60.836597 L 360.00025 29.315007 L 236.57367 29.315007 L 123.42606 29.315007 L 0 29.315007 z " /><path
       id="path77"
       style="fill:url(#linearGradient80);fill-opacity:1;stroke-width:2.50572"
       d="M 0 29.315007 L 17.485754 60.836597 L 26.195817 60.836597 L 32.648136 74.247664 L 59.32041 74.247664 L 63.944417 85.920854 L 139.59923 85.920854 L 220.4005 85.920854 L 280.35705 85.920854 L 272.52703 105.78476 L 288.18499 105.78476 L 296.05376 85.920854 L 296.05583 85.920854 L 300.67984 74.247664 L 314.54979 74.247664 L 321.00211 60.836597 L 342.51449 60.836597 L 360.00025 29.315007 L 236.57367 29.315007 L 123.42606 29.315007 L 0 29.315007 z " /><path
       id="path77-5"
       style="fill:url(#linearGradient4);fill-opacity:1;stroke-width:2.50572"
       d="M -4.8290018e-4,29.310368 17.485271,60.831955 h 8.710063 l 6.452319,13.41107 h 26.672274 l 4.624007,11.67319 h 75.654816 80.80127 59.95655 l -7.83002,19.863905 h 15.65796 l 7.86877,-19.863905 h 0.002 l 4.62401,-11.67319 h 13.86995 l 6.45232,-13.41107 h 21.51238 L 359.9997,29.310368 H 236.57319 123.42558 Z" /><path
       id="path40"
       style="fill:#1a1a1a;fill-opacity:1;stroke-width:0.620222"
       d="m 73.718954,36.1231 -1.050226,1.774107 v 0.0049 h -0.0029 l -0.653498,1.864429 v 0.148627 h -0.197663 l -0.336212,1.601522 v 0.213572 h -1.02e-4 v 0.96363 l -26.064275,1.786594 -0.958395,2.111332 0.752277,4.609418 26.557771,5.073924 0.187591,5.284869 1.485322,14.076172 -3.526872,0.516053 -1.504855,3.009614 v 2.176978 l 4.425555,0.552604 1.099566,-1.577056 0.250727,2.375651 h 0.408511 l 0.250725,-2.375651 1.100071,1.577056 4.425457,-0.552701 v -2.17709 l -1.504797,-3.009305 -3.527375,-0.51615 1.485725,-14.076172 0.187085,-5.284869 26.557783,-5.073924 0.75288,-4.609418 -0.95891,-2.111332 -26.063871,-1.786594 v -0.864593 -0.09908 -0.213571 l -0.336091,-1.601518 h -0.198163 v -0.148627 l -0.653598,-1.864429 h -9.74e-4 v -0.0049 l -1.049725,-1.774107 h -0.610201 -0.118213 z" /><path
       id="path41"
       style="fill:#1a1a1a;fill-opacity:1;stroke-width:1.36413"
       d="m 94.037443,60.446965 c -1.312574,0 -2.599658,0.272314 -3.861097,0.816461 -1.076546,0.461337 -2.153098,1.402975 -3.229646,2.82544 V 60.935132 H 82.855847 V 82.690005 H 86.9467 V 70.517492 c 0.155727,-1.614733 0.934016,-2.926344 2.334758,-3.935001 1.465994,-1.055647 3.306635,-1.583653 5.52268,-1.583653 h 0.81847 v -2.037635 -0.410744 -2.038137 c -0.647768,-0.04353 -1.176051,-0.06536 -1.585165,-0.06536 z" /><path
       id="path42"
       style="font-style:normal;font-variant:normal;font-weight:normal;font-stretch:normal;font-size:45.2326px;font-family:'Franklin Gothic Book';-inkscape-font-specification:'Franklin Gothic Book, ';text-align:start;writing-mode:lr-tb;direction:ltr;text-anchor:start;fill:#1a1a1a;fill-opacity:1;stroke-width:4.16387"
       d="m 107.53791,59.806466 c -5.56106,2.68e-4 -8.856095,1.68616 -9.519235,6.569965 l 3.130055,-0.03778 c 0.55193,-2.607107 2.38181,-3.654972 5.76414,-3.654972 1.38689,0 2.28514,-0.02653 3.13426,0.43186 0.84913,0.458392 1.20638,0.926249 1.46111,1.699787 0.26888,0.759212 0.35451,2.09688 0.35451,3.815852 -1.30199,-0.0573 -3.51703,-0.245875 -4.11143,-0.245875 -4.41542,0 -5.67541,0.91815 -7.51517,2.336302 -1.839775,1.403826 -2.759573,3.20178 -2.759573,5.39347 0,1.804919 0.643638,3.352132 1.931488,4.641361 1.287825,1.289229 3.134525,1.933565 5.540375,1.933565 3.538,0 5.47865,-0.10254 6.95046,-3.096419 -0.0139,1.925327 -0.0441,2.297516 -0.0304,3.042625 l 3.82735,0.03268 0.007,-4.000359 c -0.008,-0.252952 -0.0132,-0.509815 -0.0132,-0.770209 v -9.217868 c 0,-3.266046 -0.6234,-5.55769 -1.86877,-6.875568 -1.23107,-1.332032 -3.32467,-1.998249 -6.28182,-1.998421 h -5.3e-4 z m -1.43983,11.574244 c 2.07764,-0.03107 4.3576,-0.230936 5.02817,1.418544 0.91566,2.252419 -1.01209,6.127056 -3.70367,7.106037 -2.69174,0.979061 -5.61615,-0.05346 -6.53163,-2.306102 -0.915665,-2.252421 0.52401,-4.871994 3.2156,-5.850971 0.64013,-0.232687 1.31686,-0.357566 1.99153,-0.367508 z"
       sodipodi:nodetypes="sccssccscsssccccsscscsccsccc" /><path
       id="text42"
       style="font-style:normal;font-variant:normal;font-weight:normal;font-stretch:normal;font-size:47.0968px;font-family:'Franklin Gothic Book';-inkscape-font-specification:'Franklin Gothic Book, ';text-align:start;writing-mode:lr-tb;direction:ltr;text-anchor:start;fill:#1a1a1a;fill-opacity:1;stroke-width:4.48346"
       d="M 112.49645 55.330936 L 112.49645 59.332192 L 116.38273 59.332192 L 116.38273 55.330936 L 112.49645 55.330936 z M 112.65709 63.49441 L 112.65709 86.720992 L 116.26792 86.720992 L 116.26792 63.49441 L 112.65709 63.49441 z "
       transform="scale(1.0487477,0.95351819)" /><path
       id="text43"
       style="font-style:normal;font-variant:normal;font-weight:normal;font-stretch:normal;font-size:64px;font-family:'Franklin Gothic Book';-inkscape-font-specification:'Franklin Gothic Book, ';text-align:start;writing-mode:lr-tb;direction:ltr;white-space:pre;shape-inside:url(#rect50);fill:#1a1a1a;fill-opacity:1;stroke-width:6.0926"
       d="M 579.16804 197.71667 L 579.16804 240.37271 L 584.07428 240.37271 L 584.07428 197.71667 L 579.16804 197.71667 z "
       transform="matrix(0.81639754,0,0,1.1112434,-348.39865,-184.42254)" /><path
       id="text44"
       style="font-style:normal;font-variant:normal;font-weight:normal;font-stretch:normal;font-size:64px;font-family:'Franklin Gothic Book';-inkscape-font-specification:'Franklin Gothic Book, ';text-align:start;writing-mode:lr-tb;direction:ltr;white-space:pre;shape-inside:url(#rect51);display:inline;fill:#1a1a1a;fill-opacity:1;stroke-width:6.0926"
       d="M 632.65033 240.43146 C 629.08783 240.43146 626.2543 241.3272 624.15014 243.11887 C 622.04597 244.8897 620.99383 247.09767 620.99383 249.7435 C 620.99383 252.13934 621.76517 254.06689 623.30684 255.52523 C 624.84851 256.98356 626.92159 257.96231 629.52576 258.46231 L 636.18144 259.71284 C 639.78561 260.37951 641.58805 261.95194 641.58805 264.4311 C 641.58805 266.09777 640.87985 267.38978 639.46319 268.30645 C 638.04652 269.22312 636.31738 269.68146 634.27572 269.68146 C 628.73405 269.68146 625.44192 267.69183 624.40025 263.71266 L 619.71302 264.6815 C 621.48385 270.70233 626.10892 273.71258 633.58808 273.71258 C 637.56725 273.71258 640.75488 272.8273 643.15071 271.05646 C 645.54654 269.2648 646.74378 266.92077 646.74378 264.02493 C 646.74378 258.96243 643.52571 255.84825 637.08821 254.68159 L 630.93201 253.58755 C 627.66117 252.98338 626.02563 251.5149 626.02563 249.18156 C 626.02563 247.7024 626.66053 246.55618 627.93136 245.74368 C 629.22303 244.91035 630.86947 244.49388 632.86947 244.49388 C 636.8903 244.49388 639.54603 246.13957 640.8377 249.43123 L 645.33753 248.4624 C 643.73337 243.10823 639.5045 240.43146 632.65033 240.43146 z "
       transform="matrix(0.68387608,0,0,0.70993703,-292.76116,-111.62865)" /><path
       id="path44"
       style="font-style:normal;font-variant:normal;font-weight:normal;font-stretch:normal;font-size:64px;font-family:'Franklin Gothic Book';-inkscape-font-specification:'Franklin Gothic Book, ';text-align:start;writing-mode:lr-tb;direction:ltr;text-anchor:start;white-space:pre;shape-inside:url(#rect19);fill:#1a1a1a;fill-opacity:1;stroke-width:5.84493"
       d="m 218.25308,34.191 c -4.78941,0 -8.5788,2.35688 -11.36824,7.070137 -2.78943,4.713257 -4.18394,10.598976 -4.18394,17.657483 0,6.603107 1.31568,12.215823 3.94722,16.838006 2.63155,4.622173 6.31601,6.933379 11.0528,6.933379 4.36836,0 7.37767,-1.3258 10.09818,-4.697661 l -0.0107,4.670877 3.85704,-0.02524 -0.077,-24.368413 h -13.52591 v 4.884181 h 8.89458 c 0.0351,0.979089 0.0526,1.821465 0.0526,2.527311 0,3.825252 -0.85123,6.830916 -2.55296,9.016775 -1.68419,2.163081 -3.78928,3.244732 -6.31555,3.244732 -3.24558,0 -5.81569,-1.696674 -7.71041,-5.089312 -1.87717,-3.415404 -2.81573,-8.140071 -2.81573,-14.173948 0,-5.601262 0.84215,-10.257423 2.52633,-13.968836 1.68419,-3.711401 4.29798,-5.566911 7.8418,-5.566911 1.99996,0 3.84193,0.785291 5.52611,2.356377 1.46294,1.364685 2.52227,3.442421 3.17774,6.233052 h 4.47778 l 0.055,-0.01709 c -2.01707,-9.016662 -6.33275,-13.524896 -12.94669,-13.524896 z"
       sodipodi:nodetypes="ssssscccccccscscsssscccs" /><path
       id="path45"
       style="fill:#1a1a1a;fill-opacity:1;stroke-width:1.36413"
       d="m 276.3296,60.446965 c -1.31258,0 -2.59967,0.272314 -3.86111,0.816461 -1.07654,0.461337 -2.1531,1.402975 -3.22964,2.82544 V 60.935132 H 265.148 v 21.754873 h 4.09085 V 70.517492 c 0.15573,-1.614733 0.93401,-2.926344 2.33475,-3.935001 1.466,-1.055647 3.30664,-1.583653 5.52269,-1.583653 h 0.81847 v -2.037635 -0.410744 -2.038137 c -0.64777,-0.04353 -1.17605,-0.06536 -1.58516,-0.06536 z" /><path
       id="path46"
       style="font-style:normal;font-variant:normal;font-weight:normal;font-stretch:normal;font-size:64px;font-family:'Franklin Gothic Book';-inkscape-font-specification:'Franklin Gothic Book, ';text-align:start;writing-mode:lr-tb;direction:ltr;text-anchor:start;white-space:pre;shape-inside:url(#rect26);fill:#1a1a1a;fill-opacity:1;stroke-width:5.54743"
       d="m 191.01656,34.387568 c -2.008,0 -3.7125,0.809105 -5.11343,2.427261 -1.38537,1.618166 -2.10911,5.235978 -2.17137,10.853301 h -4.01595 v 4.264806 h 4.01595 v 30.757069 h 4.13036 V 51.932936 h 5.13878 V 47.66813 h -5.13878 v -1.421768 c 0,-2.889562 0.14911,-4.912576 0.91183,-5.95282 0.77829,-1.063358 1.73632,-1.536601 3.33961,-1.536601 0.15312,0 0.90684,-0.0045 1.06351,0.0088 l 1.20135,0.01166 0.0165,-4.200149 c -1.26083,-0.175727 -2.39766,-0.189841 -3.3783,-0.189841 z"
       sodipodi:nodetypes="scccccccccccscscccss" /><path
       id="text46"
       style="font-style:normal;font-variant:normal;font-weight:normal;font-stretch:normal;font-size:64px;font-family:'Franklin Gothic Book';-inkscape-font-specification:'Franklin Gothic Book, ';text-align:start;writing-mode:lr-tb;direction:ltr;white-space:pre;shape-inside:url(#rect52);fill:#1a1a1a;fill-opacity:1;stroke-width:6.0926"
       d="M 579.16782 197.71667 L 579.16782 240.37271 L 584.07406 240.37271 L 584.07406 197.71667 L 579.16782 197.71667 z "
       transform="matrix(0.81639754,0,0,1.1112434,-238.74315,-184.42254)" /><path
       id="path47"
       style="fill:#1a1a1a;fill-opacity:1;stroke-width:2.09013"
       d="m 171.63195,59.541015 a 9.6962872,11.574491 0 0 0 -9.69633,11.574244 9.6962872,11.574491 0 0 0 9.69633,11.574746 9.6962872,11.574491 0 0 0 9.69634,-11.574746 9.6962872,11.574491 0 0 0 -9.69634,-11.574244 z m -0.0277,3.166804 c 1.50811,0 2.82463,0.651564 3.9491,1.954681 1.12446,1.289399 1.6867,3.374605 1.6867,6.255179 0,2.866857 -0.53574,4.979141 -1.6073,6.337128 -1.07154,1.357984 -2.4011,2.037131 -3.98857,2.037131 -1.57424,0 -2.89728,-0.644669 -3.96884,-1.934069 -1.07154,-1.303117 -1.60727,-3.456775 -1.60727,-6.460803 0,-2.839423 0.53573,-4.910837 1.60727,-6.213954 1.07156,-1.316834 2.38112,-1.975293 3.92891,-1.975293 z" /><g
       id="g50"
       transform="matrix(0.97287502,0,0,0.97287502,-0.19922,0.845999)"
       style="fill:#1a1a1a"><circle
         style="fill:#1a1a1a;fill-opacity:1;stroke-width:1.68967"
         id="circle47"
         cx="258.84167"
         cy="72.864456"
         r="11.261464" /><circle
         style="fill:#1a1a1a;fill-opacity:1;stroke-width:2.33586"
         id="circle48"
         cx="258.84167"
         cy="72.864456"
         r="8.6890345" /><circle
         style="fill:#1a1a1a;fill-opacity:1;stroke-width:1.63449"
         id="circle49"
         cx="258.84167"
         cy="72.864456"
         r="6.0800557" /><circle
         style="fill:#1a1a1a;fill-opacity:1;stroke-width:1.53081"
         id="circle50"
         cx="258.84167"
         cy="72.864456"
         r="2.6316657" /></g><path
       id="path50"
       style="font-style:normal;font-variant:normal;font-weight:normal;font-stretch:normal;font-size:64px;font-family:'Franklin Gothic Book';-inkscape-font-specification:'Franklin Gothic Book, ';text-align:start;writing-mode:lr-tb;direction:ltr;text-anchor:start;white-space:pre;shape-inside:url(#rect33);fill:#1a1a1a;fill-opacity:1;stroke-width:5.80307"
       d="m 280.48816,60.446965 6.32003,21.202858 -8.03993,20.399967 h 4.25375 l 12.87484,-32.660461 0.005,0.0021 3.52527,-8.944374 h -4.26289 l -5.95454,15.10906 -4.50311,-15.10906 z" /><path
       id="path55"
       style="fill:#1a1a1a;fill-opacity:1;stroke-width:2.10012"
       inkscape:transform-center-x="11.5756"
       inkscape:transform-center-y="0.24462679"
       d="m 297.66922,60.774721 22.01726,0.0036 22.81772,0.04393 0.0145,0.0078 -0.62787,1.104842 -21.85655,-0.553971 z" /><path
       id="path56"
       style="fill:#1a1a1a;fill-opacity:1;stroke-width:1.70656"
       inkscape:transform-center-x="7.6436667"
       inkscape:transform-center-y="0.24460913"
       d="m 284.92492,74.193243 14.53864,0.0036 15.06679,0.04393 0.0165,0.01344 -0.52814,1.095023 -14.32573,-0.550354 z" /><g
       id="g60"><circle
         style="fill:#b3b3b3;fill-opacity:1;stroke-width:1.20001"
         id="path59"
         cx="8.3170309"
         cy="33.42136"
         r="2.0874982" /><rect
         style="fill:#333333;fill-opacity:1;stroke-width:1.07196"
         id="rect59"
         width="3.370096"
         height="0.39735377"
         x="6.6319838"
         y="33.222683" /><circle
         style="fill:#b3b3b3;fill-opacity:1;stroke-width:1.20001"
         id="circle60"
         cx="21.264444"
         cy="56.368988"
         r="2.0874982" /><rect
         style="fill:#333333;fill-opacity:1;stroke-width:1.07196"
         id="rect60"
         width="3.370096"
         height="0.39735377"
         x="19.579399"
         y="56.170311" /></g><path
       id="rect1-2"
       style="fill:#e5e5e5;fill-opacity:1;stroke-width:0.620222"
       d="M 218.25334 32.990751 C 213.46393 32.990751 209.67449 35.347864 206.88505 40.061121 C 204.09562 44.774378 202.70132 50.659934 202.70132 57.718441 C 202.70132 64.321548 204.01683 69.934506 206.64837 74.556689 C 209.27992 79.178862 212.96465 81.4896 217.70144 81.4896 C 222.0698 81.4896 225.07902 80.164073 227.79953 76.792212 L 227.78868 81.463245 L 231.64581 81.437923 L 231.56881 57.069385 L 218.04302 57.069385 L 218.04302 61.953841 L 226.93757 61.953841 C 226.97267 62.93293 226.99028 63.774973 226.99028 64.480819 C 226.99028 68.306071 226.13868 71.31198 224.43695 73.497839 C 222.75276 75.66092 220.64784 76.742603 218.12157 76.742603 C 214.87599 76.742603 212.30617 75.045629 210.41145 71.652991 C 208.53428 68.237587 207.5956 63.513056 207.5956 57.479179 C 207.5956 51.877917 208.43788 47.221935 210.12206 43.510522 C 211.80625 39.799121 214.41962 37.94342 217.96344 37.94342 C 219.9634 37.94342 221.80554 38.72878 223.48972 40.299866 C 224.95266 41.664551 226.01183 43.742446 226.6673 46.533077 L 231.14506 46.533077 L 231.20036 46.515507 C 229.18329 37.498845 224.86728 32.990751 218.25334 32.990751 z M 191.01728 33.187122 L 191.01676 33.187638 C 189.00876 33.187638 187.30431 33.996724 185.90338 35.61488 C 184.51801 37.233046 183.7942 40.850642 183.73194 46.467965 L 179.71616 46.467965 L 179.71616 50.732821 L 183.73194 50.732821 L 183.73194 81.4896 L 187.86243 81.4896 L 187.86243 50.732821 L 193.00114 50.732821 L 193.00114 46.467965 L 187.86243 46.467965 L 187.86243 45.046346 C 187.86243 42.156784 188.0118 40.133465 188.77452 39.093221 C 189.55281 38.029863 190.51056 37.556881 192.11385 37.556881 C 192.26697 37.556881 193.02069 37.552366 193.17736 37.565666 L 194.37883 37.577035 L 194.39537 33.377291 C 193.13454 33.201564 191.99792 33.187122 191.01728 33.187122 z M 124.43323 34.088359 L 124.43323 81.490116 L 128.43867 81.490116 L 128.43867 34.088359 L 124.43323 34.088359 z M 234.08855 34.088359 L 234.08855 81.490116 L 238.09399 81.490116 L 238.09399 34.088359 L 234.08855 34.088359 z M 73.719531 34.922933 L 72.668949 36.696985 L 72.668949 36.702153 L 72.666366 36.702153 L 72.012659 38.566121 L 72.012659 38.71495 L 71.815255 38.71495 L 71.478841 40.316402 L 71.478841 40.530343 L 71.478841 41.493591 L 45.414282 43.280562 L 44.456201 45.391545 L 45.20861 50.001082 L 71.766162 55.075191 L 71.953748 60.359623 L 73.438928 74.436283 L 69.912012 74.952014 L 68.407194 77.96165 L 68.407194 80.138778 L 72.832764 80.691199 L 73.932438 79.114034 L 74.183069 81.490116 L 74.591829 81.490116 L 74.84246 79.114034 L 75.942651 80.691199 L 80.367704 80.138778 L 80.367704 77.96165 L 78.863403 74.952014 L 75.33597 74.436283 L 76.821667 60.359623 L 77.008736 55.075191 L 103.56629 50.001082 L 104.31921 45.391545 L 103.3601 43.280562 L 77.296574 41.493591 L 77.296574 40.629045 L 77.296574 40.529826 L 77.296574 40.316402 L 76.96016 38.71495 L 76.76224 38.71495 L 76.76224 38.566121 L 76.108533 36.702153 L 76.107499 36.702153 L 76.107499 36.696985 L 75.057951 34.922933 L 74.447652 34.922933 L 74.329313 34.922933 L 73.719531 34.922933 z M 117.9804 51.55861 L 117.9804 55.373881 L 122.05663 55.373881 L 122.05663 51.55861 L 117.9804 51.55861 z M 139.89379 57.862101 C 137.45748 57.862101 135.51969 58.498025 134.0807 59.769995 C 132.64172 61.027175 131.92218 62.595209 131.92218 64.473584 C 131.92218 66.174475 132.44969 67.542401 133.504 68.577726 C 134.5583 69.613051 135.97552 70.308419 137.75645 70.663387 L 142.30863 71.550671 C 144.77343 72.023963 146.00608 73.140802 146.00608 74.900854 C 146.00608 76.084083 145.52124 77.000815 144.55242 77.651591 C 143.58359 78.302367 142.40108 78.627759 141.00483 78.627759 C 137.21502 78.627759 134.96412 77.215249 134.25175 74.390291 L 131.04626 75.078105 C 132.2573 79.352517 135.42027 81.4896 140.53509 81.4896 C 143.25635 81.4896 145.43577 80.861107 147.07423 79.603927 C 148.71268 78.331956 149.53196 76.668359 149.53196 74.6125 C 149.53196 71.018444 147.33068 68.807056 142.92823 67.978796 L 138.71815 67.202616 C 136.4813 66.773696 135.3628 65.730645 135.3628 64.074125 C 135.3628 63.02401 135.7975 62.210788 136.66659 61.633964 C 137.54993 61.04235 138.67538 60.746163 140.04313 60.746163 C 142.79288 60.746163 144.60959 61.915016 145.49293 64.251892 L 148.57026 63.564079 C 147.47321 59.762958 144.58119 57.862101 139.89379 57.862101 z M 171.63242 58.340625 A 9.6962872 11.574491 0 0 0 161.93585 69.915112 A 9.6962872 11.574491 0 0 0 171.63242 81.4896 A 9.6962872 11.574491 0 0 0 181.32847 69.915112 A 9.6962872 11.574491 0 0 0 171.63242 58.340625 z M 107.53814 58.606242 C 101.97708 58.60651 98.68248 60.292578 98.01934 65.176383 L 101.14938 65.13866 C 101.70131 62.531553 103.53104 61.483586 106.91337 61.483586 C 108.30026 61.483586 109.19843 61.457211 110.04755 61.915601 C 110.89668 62.373993 111.25371 62.8417 111.50844 63.615238 C 111.77732 64.37445 111.86294 65.712054 111.86294 67.431026 C 110.56095 67.373726 108.34596 67.185046 107.75156 67.185046 C 103.33614 67.185046 102.07654 68.103186 100.23678 69.521338 C 98.397009 70.925164 97.477254 72.723117 97.477254 74.914807 C 97.477254 76.719726 98.120553 78.267155 99.408403 79.556384 C 100.69622 80.845613 102.54278 81.4896 104.94863 81.4896 C 108.48663 81.4896 110.4273 81.387544 111.89911 78.393665 C 111.88521 80.318992 111.85544 80.690747 111.86914 81.435856 L 115.6963 81.468929 L 115.70302 77.46814 C 115.69502 77.215188 115.6901 76.958555 115.6901 76.698161 L 115.6901 67.480119 C 115.6901 64.214073 115.06685 61.922447 113.82148 60.604569 C 112.59041 59.272537 110.49684 58.606414 107.53969 58.606242 L 107.53917 58.606242 L 107.53814 58.606242 z M 94.037671 59.24703 C 92.725097 59.24703 91.438364 59.51937 90.176925 60.063517 C 89.100379 60.524854 88.023696 61.466203 86.947148 62.888668 L 86.947148 59.734855 L 82.856441 59.734855 L 82.856441 81.4896 L 86.947148 81.4896 L 86.947148 69.317216 C 87.102875 67.702483 87.881147 66.391229 89.281889 65.382572 C 90.747883 64.326925 92.588504 63.79869 94.804549 63.79869 L 95.623104 63.79869 L 95.623104 61.761088 L 95.623104 61.35026 L 95.623104 59.312142 C 94.975336 59.268612 94.446785 59.24703 94.037671 59.24703 z M 276.3299 59.24703 C 275.01732 59.24703 273.7306 59.51937 272.46916 60.063517 C 271.39262 60.524854 270.31592 61.466203 269.23938 62.888668 L 269.23938 59.734855 L 265.14867 59.734855 L 265.14867 81.4896 L 269.23938 81.4896 L 269.23938 69.317216 C 269.39511 67.702483 270.17338 66.391229 271.57412 65.382572 C 273.04012 64.326925 274.88073 63.79869 277.09678 63.79869 L 277.91534 63.79869 L 277.91534 61.761088 L 277.91534 61.35026 L 277.91534 59.312142 C 277.26757 59.268612 276.73901 59.24703 276.3299 59.24703 z M 280.48882 59.24703 L 286.80885 80.44987 L 278.76851 100.84966 L 283.02252 100.84966 L 295.89718 68.189119 L 295.90235 68.191187 L 299.42772 59.24703 L 295.16441 59.24703 L 289.21025 74.356185 L 284.70717 59.24703 L 280.48882 59.24703 z M 118.14938 59.343148 L 118.14938 81.4896 L 121.93571 81.4896 L 121.93571 59.343148 L 118.14938 59.343148 z M 171.60451 61.507874 C 173.11262 61.507874 174.42916 62.159159 175.55363 63.462276 C 176.67809 64.751675 177.24034 66.837134 177.24034 69.717708 C 177.24034 72.584565 176.70477 74.696802 175.63321 76.054789 C 174.56167 77.412773 173.23229 78.091874 171.64482 78.091874 C 170.07058 78.091874 168.74711 77.447025 167.67555 76.157625 C 166.60401 74.854508 166.06842 72.701066 166.06842 69.697038 C 166.06842 66.857615 166.60401 64.786064 167.67555 63.482947 C 168.74711 62.166113 170.05672 61.507874 171.60451 61.507874 z M 107.6663 70.156958 C 109.21547 70.164957 110.62362 70.362137 111.12655 71.599247 C 112.04221 73.851666 110.11448 77.726292 107.4229 78.705273 C 104.73116 79.684334 101.807 78.651596 100.89152 76.398954 C 99.975859 74.146533 101.41523 71.527126 104.10682 70.548149 C 104.74695 70.315462 105.42376 70.190671 106.09843 70.180729 C 106.61784 70.172962 107.1499 70.154292 107.6663 70.156958 z " /><g
       id="g35"
       transform="matrix(0.97287502,0,0,0.97287502,-0.198792,-0.354161)"><circle
         style="fill:#d4aa00;fill-opacity:1;stroke-width:1.68967"
         id="path31"
         cx="258.84167"
         cy="72.864456"
         r="11.261464" /><circle
         style="fill:#090965;fill-opacity:1;stroke-width:2.33586"
         id="path32"
         cx="258.84167"
         cy="72.864456"
         r="8.6890345" /><circle
         style="fill:#e6e6e6;fill-opacity:1;stroke-width:1.63449"
         id="circle32"
         cx="258.84167"
         cy="72.864456"
         r="6.0800557" /><circle
         style="fill:#800000;fill-opacity:1;stroke-width:1.53081"
         id="path33"
         cx="258.84167"
         cy="72.864456"
         r="2.6316657" /></g><path
       id="path53"
       style="fill:#1a1a1a;fill-opacity:1;stroke-width:1.612"
       inkscape:transform-center-x="-11.575611"
       inkscape:transform-center-y="0.24460913"
       d="M 24.214552 61.742611 L 21.708037 63.307517 L 19.298881 65.019561 L 19.333588 65.037996 L 24.588942 67.475302 L 24.495039 64.685552 L 24.214552 61.742611 z "
       transform="matrix(3.8124813,0.12001144,-7.9629173,0.19453426,461.66589,45.863193)" /><path
       id="path54"
       style="fill:#1a1a1a;fill-opacity:1;stroke-width:1.70656"
       inkscape:transform-center-x="-7.6436467"
       inkscape:transform-center-y="0.24460913"
       d="m 62.273217,74.193243 -14.538642,0.0036 -15.066784,0.04393 -0.01654,0.01344 0.528137,1.095023 14.325733,-0.550354 z" /><circle
       id="path58"
       style="fill:#8a8a8a;stroke:#000000;stroke-width:0.264583"
       cx="313.66464"
       cy="75.00383"
       r="0.10967157" /><g
       id="g62"
       transform="matrix(-1,0,0,1,360,0)"><circle
         style="fill:#b3b3b3;fill-opacity:1;stroke-width:1.20001"
         id="circle61"
         cx="8.3170309"
         cy="33.42136"
         r="2.0874982" /><rect
         style="fill:#333333;fill-opacity:1;stroke-width:1.07196"
         id="rect61"
         width="3.370096"
         height="0.39735377"
         x="6.6319838"
         y="33.222683" /><circle
         style="fill:#b3b3b3;fill-opacity:1;stroke-width:1.20001"
         id="circle62"
         cx="21.264444"
         cy="56.368988"
         r="2.0874982" /><rect
         style="fill:#333333;fill-opacity:1;stroke-width:1.07196"
         id="rect62"
         width="3.370096"
         height="0.39735377"
         x="19.579399"
         y="56.170311" /></g></g></svg>
