<?xml version="1.0" encoding="UTF-8" standalone="no"?>
<!-- Created with Inkscape (http://www.inkscape.org/) -->

<svg
   width="50mm"
   height="50mm"
   viewBox="0 0 50 50"
   version="1.1"
   id="svg1"
   xml:space="preserve"
   inkscape:version="1.4 (86a8ad7, 2024-10-11)"
   sodipodi:docname="overheatcirclebar1.svg"
   xmlns:inkscape="http://www.inkscape.org/namespaces/inkscape"
   xmlns:sodipodi="http://sodipodi.sourceforge.net/DTD/sodipodi-0.dtd"
   xmlns="http://www.w3.org/2000/svg"
   xmlns:svg="http://www.w3.org/2000/svg"><sodipodi:namedview
     id="namedview1"
     pagecolor="#ffffff"
     bordercolor="#666666"
     borderopacity="1.0"
     inkscape:showpageshadow="2"
     inkscape:pageopacity="0.0"
     inkscape:pagecheckerboard="0"
     inkscape:deskcolor="#d1d1d1"
     inkscape:document-units="mm"
     inkscape:zoom="1.4521875"
     inkscape:cx="-16.182483"
     inkscape:cy="91.930277"
     inkscape:window-width="1920"
     inkscape:window-height="1017"
     inkscape:window-x="-8"
     inkscape:window-y="-8"
     inkscape:window-maximized="1"
     inkscape:current-layer="layer1" /><defs
     id="defs1" /><g
     inkscape:label="Layer 1"
     inkscape:groupmode="layer"
     id="layer1"><path
       style="fill:#f2f2e0;stroke-width:0.243463;fill-opacity:1"
       d="m 88.86386,162.25639 c -5.817805,-0.53428 -12.439144,-1.99241 -17.712966,-3.9007 -6.038834,-2.18511 -13.734262,-6.51676 -19.172071,-10.7917 -2.943958,-2.31439 -9.180287,-8.75154 -11.58234,-11.95531 C 33.520154,126.4373 29.364554,116.88234 27.524737,106.0127 24.592739,88.690446 28.306259,71.202148 37.990257,56.726793 46.737284,43.651996 59.767117,33.981994 74.721096,29.46725 c 7.835356,-2.365565 16.159323,-3.350636 23.759538,-2.811738 6.600056,0.467982 11.083896,1.302042 16.671076,3.101065 8.07165,2.598998 15.66629,6.673329 21.97614,11.789643 2.50967,2.03495 7.25675,6.673132 9.30752,9.094007 17.48076,20.635571 20.96671,50.077163 8.79991,74.322343 -10.10256,20.13169 -29.8555,34.12969 -52.12886,36.94133 -3.750034,0.47338 -10.978189,0.65227 -14.24256,0.35249 z m 12.41659,-35.02163 c 6.52829,-1.42155 12.13178,-4.471 16.80754,-9.14677 4.78729,-4.78728 7.82046,-10.47742 9.28384,-17.41619 0.61286,-2.90596 0.6056,-9.532122 -0.0136,-12.416597 -2.30652,-10.744497 -8.69449,-19.111281 -18.13411,-23.751544 -4.89196,-2.404756 -9.1687,-3.381027 -14.76061,-3.36947 -5.511806,0.01139 -9.223547,0.83544 -14.134043,3.137917 -9.859744,4.623122 -16.681394,13.440591 -18.742919,24.22656 -0.600315,3.140884 -0.613355,8.815088 -0.02713,11.807934 1.394826,7.12102 4.410868,12.89344 9.302322,17.80377 5.117246,5.13699 12.007163,8.54966 19.341175,9.57994 2.466026,0.34642 8.542072,0.0966 11.077545,-0.45555 z"
       id="path4"
       transform="scale(0.26458333)" /></g></svg>
